<?xml version="1.0" standalone="no"?>
<!DOCTYPE svg PUBLIC "-//W3C//DTD SVG 20010904//EN"
 "http://www.w3.org/TR/2001/REC-SVG-20010904/DTD/svg10.dtd">
<svg version="1.0" xmlns="http://www.w3.org/2000/svg"
 width="1000.000000pt" height="1000.000000pt" viewBox="0 0 1000.000000 1000.000000"
 preserveAspectRatio="xMidYMid meet">
<metadata>
Created by potrace 1.14, written by Peter Selinger 2001-2017
</metadata>
<g transform="translate(0.000000,1000.000000) scale(0.100000,-0.100000)"
fill="#000000" stroke="none">
<path d="M4737 9993 c-3 -2 -44 -6 -93 -8 -49 -3 -109 -7 -134 -10 -25 -3 -65
-7 -90 -9 -25 -3 -61 -7 -80 -10 -19 -3 -53 -8 -75 -10 -22 -3 -53 -8 -69 -12
-16 -3 -43 -7 -61 -8 -17 -2 -36 -5 -42 -9 -5 -4 -34 -9 -64 -12 -29 -3 -55
-8 -58 -13 -3 -4 -15 -8 -26 -9 -21 -2 -65 -10 -104 -18 -14 -2 -27 -8 -30
-12 -3 -5 -24 -9 -46 -11 -22 -2 -45 -8 -51 -13 -6 -5 -14 -6 -17 -3 -3 3 -12
2 -19 -2 -7 -5 -17 -9 -23 -11 -5 -1 -21 -4 -34 -7 -24 -5 -171 -52 -201 -63
-8 -4 -18 -7 -22 -8 -5 -2 -10 -4 -13 -5 -3 -1 -8 -3 -12 -4 -48 -12 -99 -32
-105 -41 -4 -5 -8 -6 -8 -1 0 5 -7 2 -17 -5 -9 -8 -18 -13 -20 -11 -1 1 -5 1
-8 1 -3 -1 -8 -2 -12 -3 -5 -1 -26 -10 -48 -21 -22 -10 -44 -19 -50 -20 -13
-2 -56 -20 -120 -50 -175 -82 -211 -98 -217 -97 -5 1 -8 -3 -8 -9 0 -5 -4 -7
-10 -4 -5 3 -10 1 -10 -4 0 -6 -6 -11 -12 -11 -7 0 -39 -16 -70 -35 -32 -19
-58 -32 -58 -29 0 3 -12 -4 -26 -15 -15 -12 -31 -21 -36 -21 -5 0 -29 -13 -53
-30 -24 -16 -47 -30 -51 -30 -7 0 -82 -48 -94 -60 -3 -3 -18 -12 -35 -20 -16
-8 -41 -25 -55 -37 -14 -13 -29 -23 -35 -23 -5 0 -26 -13 -45 -30 -19 -16 -36
-27 -39 -25 -2 3 -11 -3 -20 -13 -9 -10 -29 -26 -46 -36 -35 -23 -39 -26 -85
-66 -19 -16 -38 -30 -43 -30 -5 0 -22 -12 -38 -27 -16 -16 -40 -37 -55 -48
-34 -27 -112 -91 -149 -126 -16 -15 -57 -51 -89 -81 -85 -77 -220 -213 -306
-309 -41 -46 -92 -102 -112 -125 -21 -23 -38 -46 -38 -53 0 -6 -4 -11 -9 -11
-5 0 -28 -26 -52 -57 -46 -60 -67 -87 -84 -107 -5 -7 -14 -19 -20 -28 -5 -8
-41 -59 -80 -113 -38 -53 -75 -104 -80 -113 -35 -57 -62 -100 -72 -117 -52
-83 -100 -165 -111 -190 -7 -16 -16 -32 -21 -35 -4 -3 -29 -49 -56 -103 -27
-54 -52 -100 -57 -103 -4 -3 -8 -14 -8 -25 0 -10 -4 -19 -10 -19 -5 0 -9 -3
-8 -7 1 -5 -8 -30 -20 -56 -12 -27 -22 -53 -22 -58 0 -5 -4 -9 -10 -9 -5 0 -9
-3 -8 -7 1 -5 -7 -28 -18 -53 -10 -25 -18 -48 -16 -52 1 -5 -3 -8 -9 -8 -6 0
-9 -7 -5 -15 3 -8 2 -15 -3 -15 -5 0 -12 -10 -16 -22 -4 -13 -8 -25 -9 -28 -1
-3 -8 -23 -15 -45 -8 -22 -17 -44 -21 -50 -4 -5 -10 -23 -14 -40 -4 -16 -15
-52 -26 -80 -26 -69 -33 -88 -35 -100 -1 -5 -3 -13 -5 -17 -1 -5 -4 -12 -5
-18 -1 -5 -4 -12 -5 -15 -1 -3 -3 -8 -4 -12 -13 -48 -28 -101 -33 -113 -4 -8
-8 -22 -9 -30 -1 -8 -5 -24 -8 -35 -26 -100 -67 -280 -72 -320 -4 -27 -10 -54
-14 -60 -4 -5 -6 -27 -6 -47 1 -21 -1 -38 -5 -38 -4 0 -10 -30 -14 -67 -5 -38
-10 -77 -11 -88 -2 -11 -5 -42 -8 -70 -3 -27 -6 -50 -7 -50 -1 0 -3 -18 -4
-40 -2 -22 -6 -74 -10 -115 -8 -91 -14 -631 -7 -644 3 -5 5 -44 6 -87 0 -44 3
-79 6 -79 5 0 10 -69 14 -177 0 -24 4 -43 7 -43 3 0 6 -6 6 -12 0 -20 12 -110
19 -143 4 -16 6 -39 6 -49 -1 -11 3 -26 7 -35 5 -9 11 -39 15 -68 3 -28 8 -57
11 -65 2 -7 7 -24 9 -38 8 -39 15 -70 20 -88 3 -9 7 -28 10 -42 3 -14 12 -48
19 -77 8 -28 12 -54 9 -57 -3 -3 -1 -6 5 -6 5 0 10 -7 10 -15 0 -13 16 -74 31
-115 9 -27 14 -45 15 -62 1 -10 4 -18 7 -18 4 0 12 -24 19 -53 8 -28 17 -56
21 -62 4 -5 13 -28 20 -50 7 -22 17 -46 23 -52 5 -7 7 -13 3 -13 -3 0 5 -24
18 -54 13 -30 22 -57 18 -60 -3 -3 0 -6 6 -6 7 0 11 -3 10 -7 -1 -5 6 -25 15
-47 9 -21 17 -40 17 -43 0 -4 85 -184 121 -258 72 -143 206 -377 221 -383 4
-2 6 -7 3 -12 -3 -5 0 -14 7 -22 7 -7 40 -54 73 -103 33 -50 63 -91 68 -93 4
-2 7 -10 7 -18 0 -8 5 -14 10 -14 6 0 10 -4 10 -10 0 -12 126 -177 154 -203
10 -9 16 -17 12 -17 -6 0 72 -96 135 -165 69 -77 79 -88 79 -96 0 -5 7 -9 15
-9 8 0 15 -4 15 -9 0 -19 267 -277 430 -417 30 -25 67 -57 82 -70 15 -13 31
-24 34 -24 4 0 12 -6 18 -14 17 -20 214 -166 225 -166 5 0 11 -4 13 -8 3 -9
195 -137 248 -166 19 -10 37 -21 40 -25 6 -8 73 -46 120 -69 19 -9 37 -20 40
-24 8 -10 326 -168 339 -168 6 0 11 -5 11 -10 0 -6 3 -9 8 -9 4 1 10 0 15 -1
4 -1 10 -3 15 -5 4 -1 18 -6 32 -12 14 -6 28 -10 31 -9 3 0 14 -6 23 -14 10
-8 28 -16 39 -17 12 -2 26 -8 31 -13 6 -6 16 -10 23 -10 7 0 32 -8 56 -19 23
-10 56 -23 72 -29 17 -6 39 -13 50 -18 11 -4 25 -8 30 -10 6 -2 48 -16 94 -33
46 -16 101 -33 122 -36 22 -4 41 -11 44 -15 3 -5 12 -7 20 -3 8 3 15 1 15 -4
0 -5 8 -9 18 -10 9 0 26 -4 37 -7 46 -13 111 -28 123 -29 6 0 12 -4 12 -7 0
-4 14 -6 30 -5 17 1 30 -1 30 -6 0 -5 15 -9 33 -9 19 0 37 -3 40 -7 7 -6 43
-12 82 -13 10 -1 24 -4 30 -9 5 -4 17 -7 25 -6 8 0 31 -3 50 -7 19 -5 60 -11
90 -14 30 -3 62 -8 70 -11 16 -5 108 -14 177 -17 24 0 43 -3 43 -6 0 -10 162
-15 455 -14 274 1 379 5 520 20 28 3 66 6 85 7 19 2 40 5 45 8 6 3 30 7 55 8
25 2 49 5 54 8 5 4 23 7 40 9 17 1 49 5 71 9 22 3 51 7 65 8 14 1 27 5 30 8 5
6 75 20 113 22 9 1 17 4 17 7 0 3 8 6 18 7 32 2 68 9 77 15 15 9 78 22 93 19
6 -1 12 3 12 9 0 6 4 9 9 6 7 -5 66 10 121 31 8 4 20 7 25 7 23 2 160 51 163
58 2 5 8 6 13 2 5 -3 15 -2 22 3 6 4 17 8 22 9 6 1 28 10 50 19 22 10 47 19
55 20 8 1 35 11 60 22 25 10 77 32 115 48 39 16 73 34 77 40 4 5 8 6 8 2 0 -5
12 -2 27 6 16 8 60 30 98 48 39 19 72 37 73 42 2 4 11 7 20 8 10 0 40 13 67
30 28 16 61 34 75 40 13 5 27 13 30 17 3 4 21 15 40 25 19 9 53 28 75 42 22
13 51 30 65 37 14 7 27 15 30 18 3 3 37 26 75 50 59 36 149 99 285 197 13 10
32 26 42 35 10 10 20 18 23 18 3 0 11 5 18 10 7 6 22 18 33 28 89 71 111 90
131 109 13 12 23 20 23 18 0 -3 16 12 35 32 19 20 35 34 35 30 0 -17 390 385
485 501 11 13 28 32 37 43 10 10 32 38 50 62 18 24 68 90 111 146 42 57 77
105 77 107 0 5 50 75 60 84 12 10 70 111 70 120 0 6 4 10 8 10 5 0 15 12 23
28 8 15 16 29 19 32 3 3 16 25 29 50 13 25 31 53 39 63 8 9 11 17 7 17 -4 0
-2 8 6 18 8 9 25 37 39 62 13 25 28 48 34 52 6 4 7 8 3 8 -4 0 5 24 21 53 41
75 165 348 165 364 0 7 3 13 7 13 4 0 13 19 19 43 7 23 22 62 34 87 11 25 22
50 23 56 7 38 49 154 57 154 4 0 6 4 3 8 -3 5 8 51 25 103 16 52 32 103 34
114 2 11 6 29 9 40 8 28 28 108 30 120 1 6 5 16 9 22 5 7 6 17 2 22 -3 5 -2
12 3 15 4 2 8 17 7 33 0 15 3 30 7 33 4 3 8 21 10 39 1 18 6 35 10 37 4 3 5
11 1 19 -3 8 -2 23 2 33 5 9 9 26 11 37 1 11 5 34 7 50 3 17 8 53 12 80 4 28
9 59 11 70 6 28 21 175 29 280 2 33 6 77 7 98 2 20 -1 37 -7 37 -5 0 -5 4 2 8
14 9 8 702 -7 702 -3 0 -6 19 -6 43 -2 46 -12 172 -14 172 -3 0 -10 45 -35
215 -2 14 -4 25 -5 25 -1 0 -3 11 -6 25 -2 14 -9 50 -16 80 -6 30 -11 61 -9
68 1 6 -2 12 -7 12 -5 0 -8 10 -7 23 1 12 -4 37 -11 55 -7 17 -11 32 -9 32 2
0 -1 15 -6 33 -6 17 -13 46 -16 62 -3 17 -10 33 -16 37 -7 4 -9 8 -5 8 4 0 0
21 -8 48 -8 26 -16 56 -18 67 -3 18 -37 124 -53 165 -4 8 -7 17 -7 20 -2 11
-39 107 -51 135 -8 16 -11 33 -9 37 3 4 0 8 -5 8 -6 0 -11 7 -11 15 0 8 -4 23
-9 33 -5 9 -14 31 -21 47 -7 17 -16 38 -21 47 -5 10 -9 25 -9 33 0 8 -4 15
-10 15 -5 0 -10 7 -10 15 0 21 -32 85 -42 85 -5 0 -7 4 -4 8 6 10 -118 258
-142 285 -8 9 -12 17 -8 17 4 0 -1 12 -12 28 -10 15 -21 32 -23 37 -9 23 -94
160 -101 163 -5 2 -8 10 -8 18 0 8 -4 14 -10 14 -5 0 -10 6 -10 14 0 8 -6 21
-12 28 -7 7 -35 47 -63 88 -27 41 -53 77 -57 78 -5 2 -8 8 -8 13 0 9 -126 177
-146 194 -6 6 -13 15 -15 21 -5 13 -87 111 -140 166 -20 21 -34 40 -32 42 3 2
-5 10 -17 16 -12 6 -20 14 -17 16 8 9 -326 336 -454 444 -23 20 -94 78 -133
111 -54 44 -230 174 -263 194 -17 11 -76 50 -130 86 -117 79 -283 178 -353
212 -14 6 -28 16 -32 22 -4 5 -8 6 -8 2 0 -5 -15 0 -32 11 -32 20 -138 75
-148 78 -3 0 -32 14 -65 29 -33 16 -62 29 -65 30 -3 1 -22 9 -44 18 -21 9 -44
17 -51 17 -8 0 -15 5 -17 12 -2 6 -13 12 -24 13 -10 1 -29 7 -41 13 -12 7 -29
12 -37 12 -9 0 -16 5 -16 11 0 5 -4 7 -10 4 -5 -3 -21 1 -34 10 -14 9 -29 17
-33 17 -9 1 -26 6 -50 15 -10 3 -20 7 -23 8 -12 3 -86 27 -100 32 -8 4 -17 7
-20 8 -74 20 -129 37 -142 45 -10 5 -24 7 -33 4 -8 -3 -15 -1 -15 4 0 6 -8 11
-17 11 -45 2 -63 6 -63 13 0 4 -13 8 -30 8 -16 0 -30 3 -30 8 0 4 -19 8 -41 9
-23 2 -48 8 -56 14 -7 7 -16 9 -19 6 -3 -3 -20 -1 -37 4 -18 5 -54 12 -82 15
-27 4 -52 9 -55 13 -3 4 -12 7 -20 7 -8 0 -40 4 -70 9 -93 14 -104 15 -140 20
-90 12 -214 25 -295 31 -72 6 -633 12 -638 7z"/>
</g>
</svg>
