<svg id="svg" version="1.1" xmlns="http://www.w3.org/2000/svg" xmlns:xlink="http://www.w3.org/1999/xlink" width="400" height="400" viewBox="0, 0, 400,400"><g id="svgg"><path id="path0" d="M192.000 75.618 C 180.658 77.128,173.266 79.138,165.200 82.904 C 163.110 83.880,161.220 84.751,161.000 84.839 C 156.994 86.448,145.330 94.782,139.274 100.362 C 127.318 111.381,115.037 129.577,109.332 144.725 C 106.466 152.334,103.688 161.123,102.797 165.400 C 102.522 166.720,102.068 168.790,101.788 170.000 C 100.684 174.770,99.633 182.458,99.189 189.000 C 99.009 191.640,98.657 195.359,98.405 197.265 C 98.065 199.846,98.063 201.682,98.398 204.465 C 98.645 206.519,99.011 210.341,99.210 212.959 C 99.822 220.978,101.297 230.514,102.835 236.400 C 112.641 273.924,135.015 304.565,161.600 316.877 C 167.692 319.699,169.536 320.464,173.215 321.699 C 177.454 323.122,180.566 323.949,185.100 324.859 C 188.571 325.555,188.468 326.286,184.553 328.712 C 171.057 337.076,167.908 347.701,173.505 365.989 C 175.292 371.827,176.915 375.512,180.822 382.600 C 181.550 383.920,182.787 386.178,183.573 387.618 C 184.358 389.058,186.260 392.428,187.800 395.107 L 190.600 399.978 194.900 399.989 C 200.061 400.002,200.001 400.627,195.559 393.138 C 193.556 389.762,190.744 384.840,189.310 382.200 C 187.876 379.560,186.117 376.320,185.401 375.000 C 178.378 362.053,176.557 350.209,180.420 342.600 C 181.700 340.079,184.543 337.016,185.324 337.316 C 186.012 337.580,186.007 337.773,185.202 342.000 C 185.014 342.990,184.548 345.432,184.168 347.427 C 183.159 352.721,184.349 355.250,188.107 355.802 C 192.351 356.425,217.389 355.831,218.534 355.080 C 221.362 353.226,221.363 353.252,218.203 331.684 C 217.871 329.420,217.600 326.882,217.600 326.043 L 217.600 324.519 220.300 323.818 C 223.111 323.088,228.416 321.415,229.800 320.821 C 230.240 320.632,231.860 319.977,233.400 319.365 C 234.940 318.752,236.380 318.130,236.600 317.982 C 236.820 317.833,238.530 316.927,240.400 315.968 C 273.605 298.944,297.758 258.003,301.191 212.925 C 301.389 210.326,301.759 206.562,302.013 204.560 C 302.365 201.793,302.363 200.066,302.006 197.360 C 301.748 195.402,301.391 191.640,301.211 189.000 C 300.767 182.458,299.716 174.770,298.612 170.000 C 298.332 168.790,297.878 166.720,297.603 165.400 C 296.711 161.121,293.935 152.338,291.065 144.716 C 285.354 129.550,273.103 111.400,261.126 100.362 C 255.070 94.782,243.406 86.448,239.400 84.839 C 239.180 84.751,237.290 83.880,235.200 82.904 C 221.761 76.628,205.285 73.849,192.000 75.618 M211.000 86.219 C 217.707 87.363,219.975 87.935,225.600 89.903 C 246.619 97.256,266.486 116.552,278.208 141.000 C 280.507 145.793,281.179 147.377,283.555 153.600 C 284.533 156.162,287.082 164.672,287.568 167.000 C 290.834 182.647,291.405 187.732,291.381 201.000 C 291.364 210.607,291.202 212.987,289.949 222.000 C 289.500 225.225,287.830 233.709,287.193 236.000 C 277.675 270.214,257.767 296.935,233.400 308.203 C 227.009 311.158,226.958 311.178,220.600 313.170 C 208.698 316.900,191.702 316.900,179.800 313.170 C 173.442 311.178,173.391 311.158,167.000 308.203 C 142.633 296.935,122.725 270.214,113.207 236.000 C 112.570 233.709,110.900 225.225,110.451 222.000 C 109.198 212.987,109.036 210.607,109.019 201.000 C 108.995 187.732,109.566 182.647,112.832 167.000 C 114.250 160.209,118.111 149.538,122.383 140.600 C 140.589 102.510,176.675 80.365,211.000 86.219 M178.000 110.773 C 167.074 113.032,157.224 120.393,149.327 132.200 C 146.281 136.753,142.462 144.032,140.092 149.800 C 134.408 163.636,134.027 168.267,138.461 169.648 C 142.198 170.812,144.362 168.968,146.120 163.124 C 149.936 150.434,157.563 136.738,164.836 129.516 C 167.424 126.947,172.985 122.800,173.844 122.800 C 173.973 122.800,174.646 122.555,175.340 122.256 C 176.033 121.957,177.140 121.484,177.800 121.206 C 178.460 120.927,181.160 120.625,183.800 120.533 C 191.736 120.259,193.400 119.321,193.400 115.124 C 193.400 110.253,187.955 108.714,178.000 110.773 M207.857 331.200 C 208.876 337.893,209.266 341.117,209.331 343.400 L 209.400 345.800 202.400 345.800 L 195.400 345.800 195.419 344.000 C 195.429 343.010,195.769 340.490,196.174 338.400 C 196.579 336.310,196.996 333.970,197.101 333.200 C 197.381 331.143,198.120 330.559,201.433 329.779 C 203.073 329.393,204.727 328.836,205.108 328.542 C 206.680 327.328,207.369 327.994,207.857 331.200 " stroke="none" fill="#0a0a0a" fill-rule="evenodd"></path><path id="path1" d="M197.549 86.173 C 197.411 86.317,195.251 86.601,192.749 86.803 C 186.312 87.322,178.427 89.127,173.400 91.233 C 154.304 99.232,139.224 112.775,127.602 132.362 C 125.209 136.394,120.000 146.856,120.000 147.630 C 120.000 147.839,119.838 148.323,119.641 148.705 C 119.444 149.087,118.972 150.210,118.593 151.200 C 118.214 152.190,117.764 153.360,117.592 153.800 C 117.020 155.269,116.470 156.979,115.791 159.400 C 115.421 160.720,114.968 162.250,114.785 162.800 C 113.987 165.200,113.200 168.395,113.200 169.233 C 113.200 169.734,113.034 170.696,112.831 171.372 C 112.188 173.507,111.547 176.898,111.198 180.000 C 111.012 181.650,110.657 184.800,110.409 187.000 C 109.809 192.328,109.800 207.812,110.394 213.800 C 111.283 222.769,111.459 224.198,111.897 226.000 C 112.137 226.990,112.536 228.880,112.783 230.200 C 113.271 232.812,114.220 236.760,115.041 239.600 C 115.327 240.590,115.822 242.300,116.141 243.400 C 116.460 244.500,117.169 246.570,117.717 248.000 C 118.265 249.430,119.159 251.770,119.703 253.200 C 121.063 256.769,125.042 264.948,126.664 267.508 C 127.399 268.667,128.000 269.699,128.000 269.800 C 128.000 270.808,135.378 280.968,139.619 285.800 C 147.416 294.686,158.455 303.480,166.200 306.977 C 167.080 307.374,169.079 308.307,170.642 309.050 C 172.205 309.792,173.692 310.400,173.947 310.400 C 174.202 310.400,174.723 310.573,175.105 310.784 C 175.854 311.197,181.346 312.819,184.600 313.588 C 193.724 315.743,206.676 315.743,215.800 313.588 C 219.054 312.819,224.546 311.197,225.295 310.784 C 225.677 310.573,226.198 310.400,226.453 310.400 C 226.708 310.400,228.195 309.792,229.758 309.050 C 231.321 308.307,233.320 307.374,234.200 306.977 C 241.945 303.480,252.984 294.686,260.781 285.800 C 265.022 280.968,272.400 270.808,272.400 269.800 C 272.400 269.699,273.001 268.667,273.736 267.508 C 275.358 264.948,279.337 256.769,280.697 253.200 C 281.241 251.770,282.135 249.430,282.683 248.000 C 283.231 246.570,283.940 244.500,284.259 243.400 C 284.578 242.300,285.073 240.590,285.359 239.600 C 286.180 236.760,287.129 232.812,287.617 230.200 C 287.864 228.880,288.263 226.990,288.503 226.000 C 288.941 224.198,289.117 222.769,290.006 213.800 C 290.600 207.812,290.591 192.328,289.991 187.000 C 289.743 184.800,289.388 181.650,289.202 180.000 C 288.853 176.898,288.212 173.507,287.569 171.372 C 287.366 170.696,287.200 169.734,287.200 169.233 C 287.200 168.395,286.413 165.200,285.615 162.800 C 285.432 162.250,284.979 160.720,284.609 159.400 C 283.710 156.195,283.246 154.838,282.012 151.800 C 281.744 151.140,281.250 149.790,280.915 148.800 C 272.804 124.820,250.611 101.124,227.000 91.233 C 224.600 90.228,218.252 88.417,214.200 87.582 C 210.545 86.829,197.942 85.763,197.549 86.173 M191.673 110.323 C 195.390 112.625,195.303 118.214,191.518 120.281 C 190.544 120.812,188.895 121.065,185.200 121.249 C 176.060 121.704,171.364 123.862,164.729 130.655 C 159.861 135.639,152.981 146.757,150.149 154.213 C 149.902 154.866,149.246 156.570,148.692 158.000 C 148.139 159.430,147.198 162.130,146.601 164.000 C 144.661 170.080,141.834 172.194,138.114 170.349 C 134.540 168.576,133.619 165.730,135.164 161.227 C 135.584 160.002,136.389 157.538,136.953 155.750 C 137.518 153.963,138.524 151.324,139.190 149.886 C 139.855 148.447,140.400 147.163,140.400 147.031 C 140.400 146.628,142.101 143.083,143.006 141.600 C 143.476 140.830,144.632 138.760,145.575 137.000 C 152.304 124.446,163.353 114.303,173.925 110.976 C 180.213 108.997,189.008 108.673,191.673 110.323 " stroke="none" fill="#fc4c4c" fill-rule="evenodd"></path><path id="path2" d="M181.200 0.421 C 180.650 0.605,177.860 0.965,175.000 1.221 C 172.140 1.477,168.990 1.869,168.000 2.092 C 167.010 2.315,164.040 2.911,161.400 3.416 C 154.689 4.701,149.298 5.922,148.487 6.340 C 148.109 6.535,147.080 6.825,146.200 6.983 C 144.270 7.332,130.433 11.880,129.828 12.365 C 129.593 12.553,128.770 12.836,128.000 12.993 C 127.230 13.149,126.045 13.596,125.367 13.985 C 124.690 14.375,123.437 14.924,122.583 15.206 C 121.730 15.487,120.188 16.141,119.158 16.659 C 118.127 17.176,117.163 17.600,117.015 17.600 C 116.537 17.600,104.266 23.850,102.200 25.145 C 101.100 25.835,99.660 26.668,99.000 26.997 C 98.340 27.326,96.810 28.220,95.600 28.984 C 94.390 29.748,92.884 30.665,92.253 31.021 C 91.622 31.378,89.866 32.554,88.352 33.635 C 86.837 34.716,85.458 35.600,85.287 35.600 C 85.117 35.600,84.685 35.915,84.328 36.300 C 83.970 36.685,83.019 37.450,82.215 38.000 C 78.806 40.330,71.429 46.249,66.822 50.349 C 60.311 56.145,50.765 66.066,45.145 72.877 C 42.105 76.560,41.027 77.968,36.165 84.600 C 35.631 85.329,32.932 89.346,31.999 90.800 C 31.788 91.130,31.160 92.085,30.604 92.923 C 30.047 93.761,29.224 95.111,28.774 95.923 C 28.323 96.735,26.996 99.020,25.825 101.000 C 22.564 106.511,15.517 120.793,14.962 123.015 C 14.800 123.667,14.247 124.992,13.733 125.960 C 13.220 126.927,12.800 128.012,12.800 128.371 C 12.800 128.729,12.560 129.377,12.266 129.811 C 11.973 130.245,11.495 131.500,11.205 132.600 C 10.914 133.700,10.572 134.780,10.444 135.000 C 10.317 135.220,10.198 135.490,10.181 135.600 C 10.093 136.158,8.344 141.508,8.022 142.200 C 7.723 142.846,7.071 145.296,6.213 149.000 C 6.163 149.220,6.016 149.670,5.887 150.000 C 5.599 150.740,4.363 155.906,4.213 157.000 C 4.152 157.440,3.995 158.070,3.864 158.400 C 3.610 159.036,2.340 166.444,2.252 167.800 C 2.223 168.240,2.088 168.690,1.951 168.800 C -0.305 170.613,-0.305 229.387,1.951 231.200 C 2.088 231.310,2.223 231.760,2.252 232.200 C 2.341 233.577,3.612 240.970,3.868 241.600 C 4.002 241.930,4.161 242.470,4.222 242.800 C 5.158 247.845,5.776 250.637,5.994 250.800 C 6.141 250.910,6.575 252.350,6.959 254.000 C 7.342 255.650,7.905 257.548,8.208 258.218 C 8.512 258.888,8.958 260.321,9.200 261.402 C 9.443 262.483,9.796 263.555,9.986 263.784 C 10.176 264.013,10.335 264.290,10.338 264.400 C 10.341 264.510,10.513 265.050,10.721 265.600 C 10.928 266.150,11.221 267.167,11.372 267.861 C 11.523 268.554,11.996 269.808,12.423 270.646 C 12.850 271.484,13.200 272.451,13.200 272.796 C 13.200 273.140,13.431 273.777,13.713 274.211 C 13.996 274.645,14.465 275.720,14.756 276.600 C 15.351 278.402,16.743 281.509,18.450 284.851 C 19.082 286.089,19.600 287.311,19.600 287.568 C 19.600 287.824,19.785 288.251,20.011 288.517 C 20.237 288.783,21.272 290.642,22.311 292.648 C 24.843 297.537,27.652 302.493,28.216 303.066 C 28.468 303.322,28.920 304.132,29.220 304.866 C 29.521 305.600,30.000 306.439,30.286 306.731 C 30.571 307.023,31.008 307.642,31.257 308.106 C 31.505 308.570,31.866 309.141,32.059 309.375 C 32.252 309.609,33.124 310.880,33.996 312.200 C 34.868 313.520,35.811 314.938,36.091 315.350 C 36.931 316.588,41.087 322.154,41.664 322.813 C 41.959 323.150,42.730 324.140,43.379 325.013 C 44.027 325.886,44.657 326.690,44.779 326.800 C 45.000 327.000,48.056 330.567,50.244 333.179 C 52.393 335.744,65.833 348.981,69.041 351.692 C 73.707 355.635,74.251 356.079,78.200 359.153 C 81.593 361.796,92.780 369.478,95.400 370.966 C 96.060 371.340,98.220 372.607,100.200 373.780 C 103.613 375.801,114.036 381.150,118.800 383.324 C 120.837 384.254,121.931 384.703,127.400 386.859 C 134.104 389.503,138.526 390.991,144.000 392.447 C 145.650 392.886,147.360 393.409,147.800 393.609 C 148.852 394.088,156.758 395.889,161.800 396.797 C 164.000 397.194,166.610 397.706,167.600 397.934 C 168.590 398.163,171.740 398.555,174.600 398.805 C 177.460 399.055,180.076 399.403,180.412 399.578 C 181.170 399.973,189.600 400.149,189.600 399.770 C 189.600 399.618,188.097 396.863,186.260 393.647 C 175.688 375.143,174.480 372.480,171.178 360.400 C 167.671 347.574,172.461 335.266,183.579 328.537 C 186.804 326.585,187.576 325.600,185.880 325.600 C 182.746 325.600,171.118 322.040,165.043 319.220 C 163.123 318.329,161.488 317.600,161.409 317.600 C 160.891 317.600,152.360 312.248,148.844 309.718 C 136.991 301.187,124.527 287.336,117.604 275.000 C 113.792 268.208,113.425 267.497,110.883 262.000 C 108.546 256.944,105.614 249.163,104.402 244.800 C 104.127 243.810,103.676 242.190,103.400 241.200 C 102.055 236.376,101.387 233.465,100.415 228.200 C 99.680 224.214,98.805 217.881,98.802 216.524 C 98.801 215.822,98.620 215.136,98.400 215.000 C 97.901 214.692,97.846 186.542,98.344 186.235 C 98.533 186.118,98.809 184.802,98.959 183.311 C 99.872 174.190,103.774 156.992,106.380 150.600 C 106.560 150.160,107.192 148.540,107.785 147.000 C 108.378 145.460,109.029 143.887,109.232 143.505 C 109.434 143.123,109.600 142.628,109.600 142.404 C 109.600 140.161,119.821 122.321,125.134 115.291 C 137.371 99.099,149.871 89.083,168.171 80.807 C 171.327 79.379,179.257 77.036,185.200 75.774 C 189.163 74.932,209.528 74.457,212.000 75.149 C 212.770 75.364,214.480 75.746,215.800 75.996 C 220.771 76.941,229.023 79.357,232.229 80.807 C 253.352 90.360,268.926 104.104,281.404 124.200 C 284.030 128.429,290.800 141.540,290.800 142.396 C 290.800 142.624,290.966 143.123,291.168 143.505 C 291.371 143.887,292.022 145.460,292.615 147.000 C 293.208 148.540,293.840 150.160,294.020 150.600 C 296.626 156.992,300.528 174.190,301.441 183.311 C 301.591 184.802,301.867 186.118,302.056 186.235 C 302.506 186.512,302.505 214.688,302.056 214.965 C 301.867 215.082,301.588 216.578,301.436 218.289 C 300.407 229.844,295.543 248.682,291.025 258.600 C 290.324 260.140,289.503 262.012,289.202 262.760 C 285.723 271.385,276.672 285.294,268.741 294.200 C 255.321 309.270,239.738 319.146,221.400 324.204 C 220.080 324.568,218.753 324.944,218.451 325.039 C 218.057 325.164,217.979 325.577,218.173 326.506 C 218.469 327.923,219.408 334.471,219.993 339.200 C 220.197 340.850,220.632 344.095,220.960 346.412 C 222.369 356.373,221.593 356.803,202.251 356.791 C 182.770 356.779,181.584 356.066,183.762 345.679 C 185.547 337.162,185.549 337.257,183.621 339.276 C 177.961 345.200,177.576 355.785,182.598 367.400 C 182.883 368.060,183.526 369.590,184.027 370.800 C 184.527 372.010,185.062 373.180,185.215 373.400 C 185.515 373.830,186.769 376.115,189.797 381.752 C 190.847 383.705,193.625 388.565,195.971 392.552 L 200.237 399.800 209.558 399.879 C 214.684 399.922,219.176 399.801,219.539 399.609 C 219.903 399.418,222.450 399.066,225.200 398.828 C 227.950 398.590,232.000 398.039,234.200 397.603 C 245.103 395.441,251.189 394.098,252.200 393.632 C 252.640 393.428,253.540 393.150,254.200 393.013 C 255.686 392.704,262.701 390.565,265.400 389.598 C 269.432 388.154,274.231 386.327,275.400 385.791 C 276.060 385.488,277.320 384.953,278.200 384.602 C 281.577 383.254,283.196 382.494,289.793 379.158 C 297.206 375.409,303.323 372.006,303.533 371.512 C 303.607 371.341,303.833 371.200,304.037 371.200 C 304.341 371.200,308.533 368.603,312.200 366.143 C 317.875 362.336,318.458 361.904,324.788 356.813 C 332.097 350.936,334.809 348.475,342.200 341.019 C 350.250 332.899,353.281 329.488,358.521 322.654 C 359.004 322.023,359.679 321.213,360.020 320.854 C 360.607 320.235,361.311 319.253,362.890 316.850 C 364.188 314.874,364.601 314.288,365.430 313.244 C 366.179 312.303,367.737 309.934,370.197 306.000 C 370.678 305.230,371.413 304.060,371.829 303.400 C 372.245 302.740,372.782 301.840,373.021 301.400 C 373.260 300.960,373.969 299.700,374.597 298.600 C 375.224 297.500,376.190 295.700,376.742 294.600 C 377.295 293.500,377.865 292.510,378.010 292.400 C 378.155 292.290,378.596 291.345,378.991 290.300 C 379.386 289.255,379.864 288.400,380.054 288.400 C 380.244 288.400,380.400 288.197,380.400 287.949 C 380.400 287.701,381.001 286.216,381.736 284.649 C 382.472 283.082,383.492 280.810,384.003 279.600 C 384.515 278.390,385.331 276.500,385.816 275.400 C 386.302 274.300,386.929 272.680,387.210 271.800 C 387.491 270.920,387.942 269.840,388.211 269.400 C 388.480 268.960,388.916 267.702,389.180 266.605 C 389.443 265.508,389.809 264.428,389.993 264.205 C 390.176 263.982,390.622 262.720,390.983 261.400 C 391.804 258.397,391.825 258.328,392.131 257.600 C 392.410 256.934,393.621 252.540,393.785 251.600 C 393.842 251.270,394.001 250.730,394.139 250.400 C 394.409 249.752,395.592 244.709,395.781 243.400 C 395.845 242.960,395.998 242.330,396.121 242.000 C 396.299 241.524,397.219 236.465,397.795 232.800 C 397.847 232.470,397.997 231.930,398.129 231.600 C 400.373 225.979,400.377 174.117,398.133 168.400 C 398.003 168.070,397.850 167.440,397.791 167.000 C 397.528 165.010,396.321 158.540,396.112 158.000 C 395.830 157.274,395.861 157.407,395.005 153.200 C 394.625 151.330,394.207 149.623,394.076 149.407 C 393.945 149.191,393.799 148.741,393.751 148.407 C 393.638 147.612,392.433 143.171,392.122 142.400 C 391.834 141.687,391.814 141.621,391.033 138.800 C 390.698 137.590,390.245 136.240,390.026 135.800 C 389.807 135.360,389.285 134.010,388.866 132.800 C 386.835 126.941,386.256 125.384,386.035 125.200 C 385.903 125.090,385.557 124.280,385.266 123.400 C 384.975 122.520,384.400 121.080,383.989 120.200 C 383.579 119.320,382.603 117.228,381.821 115.551 C 381.040 113.874,380.400 112.299,380.400 112.051 C 380.400 111.803,380.238 111.600,380.040 111.600 C 379.842 111.600,379.357 110.700,378.961 109.600 C 378.566 108.500,378.120 107.600,377.970 107.600 C 377.821 107.600,377.304 106.745,376.822 105.700 C 375.646 103.149,373.794 99.843,372.151 97.359 C 371.408 96.236,370.800 95.199,370.800 95.055 C 370.800 94.911,370.305 94.096,369.700 93.244 C 369.095 92.392,368.379 91.358,368.108 90.947 C 367.329 89.765,364.470 85.476,363.909 84.650 C 363.069 83.412,358.913 77.846,358.336 77.187 C 358.041 76.850,357.270 75.860,356.621 74.987 C 355.973 74.114,355.343 73.310,355.221 73.200 C 354.994 72.995,351.675 69.112,349.959 67.044 C 349.432 66.409,345.659 62.539,341.575 58.444 C 335.134 51.986,332.202 49.285,326.586 44.633 C 320.045 39.214,306.352 29.725,301.400 27.180 C 300.520 26.728,298.990 25.844,298.000 25.217 C 296.019 23.961,282.691 17.200,282.197 17.200 C 282.027 17.200,281.148 16.855,280.244 16.432 C 275.957 14.431,273.069 13.200,272.655 13.198 C 272.405 13.196,271.680 12.924,271.045 12.593 C 270.410 12.261,268.880 11.701,267.645 11.347 C 266.410 10.993,265.220 10.565,265.000 10.396 C 264.551 10.052,260.362 8.769,255.076 7.358 C 253.138 6.841,251.343 6.289,251.087 6.130 C 250.832 5.972,249.087 5.532,247.211 5.152 C 245.335 4.773,243.080 4.269,242.200 4.033 C 241.320 3.797,239.340 3.420,237.800 3.196 C 236.260 2.972,233.830 2.516,232.400 2.182 C 225.356 0.539,185.005 -0.850,181.200 0.421 M193.105 86.683 C 193.602 86.779,194.322 86.775,194.705 86.675 C 195.087 86.575,194.680 86.496,193.800 86.501 C 192.920 86.505,192.607 86.587,193.105 86.683 M205.905 86.683 C 206.402 86.779,207.122 86.775,207.505 86.675 C 207.887 86.575,207.480 86.496,206.600 86.501 C 205.720 86.505,205.407 86.587,205.905 86.683 M186.305 109.483 C 186.802 109.579,187.522 109.575,187.905 109.475 C 188.287 109.375,187.880 109.296,187.000 109.301 C 186.120 109.305,185.807 109.387,186.305 109.483 M109.701 196.200 C 109.705 197.080,109.787 197.393,109.883 196.895 C 109.979 196.398,109.975 195.678,109.875 195.295 C 109.775 194.913,109.696 195.320,109.701 196.200 M290.501 196.200 C 290.505 197.080,290.587 197.393,290.683 196.895 C 290.779 196.398,290.775 195.678,290.675 195.295 C 290.575 194.913,290.496 195.320,290.501 196.200 M109.701 205.400 C 109.705 206.280,109.787 206.593,109.883 206.095 C 109.979 205.598,109.975 204.878,109.875 204.495 C 109.775 204.113,109.696 204.520,109.701 205.400 M290.501 205.400 C 290.505 206.280,290.587 206.593,290.683 206.095 C 290.779 205.598,290.775 204.878,290.675 204.495 C 290.575 204.113,290.496 204.520,290.501 205.400 M110.093 212.400 C 110.093 213.170,110.175 213.485,110.276 213.100 C 110.376 212.715,110.376 212.085,110.276 211.700 C 110.175 211.315,110.093 211.630,110.093 212.400 M290.093 212.400 C 290.093 213.170,290.175 213.485,290.276 213.100 C 290.376 212.715,290.376 212.085,290.276 211.700 C 290.175 211.315,290.093 211.630,290.093 212.400 M203.800 329.707 C 197.555 331.800,198.088 331.479,197.811 333.321 C 197.482 335.517,196.470 340.975,196.019 342.989 C 195.515 345.242,195.393 345.200,202.470 345.200 L 208.893 345.200 208.683 342.700 C 208.486 340.367,207.563 333.721,206.960 330.300 C 206.814 329.475,206.584 328.823,206.448 328.851 C 206.311 328.880,205.120 329.265,203.800 329.707 " stroke="none" fill="#fbfbfb" fill-rule="evenodd"></path><path id="path3" d="M188.400 75.223 C 187.974 75.514,188.380 75.555,189.800 75.365 C 190.900 75.218,191.875 75.031,191.967 74.949 C 192.368 74.590,188.939 74.854,188.400 75.223 M208.433 74.949 C 208.525 75.031,209.500 75.218,210.600 75.365 C 212.020 75.555,212.426 75.514,212.000 75.223 C 211.461 74.854,208.032 74.590,208.433 74.949 M184.800 76.000 C 183.456 76.431,184.908 76.431,186.600 76.000 C 187.678 75.726,187.698 75.694,186.800 75.687 C 186.250 75.683,185.350 75.824,184.800 76.000 M213.800 76.000 C 214.460 76.168,215.360 76.314,215.800 76.325 L 216.600 76.344 215.800 76.000 C 215.360 75.811,214.460 75.665,213.800 75.675 L 212.600 75.695 213.800 76.000 M179.800 76.989 C 177.712 77.677,178.394 77.685,181.400 77.008 C 182.898 76.670,183.349 76.466,182.600 76.464 C 181.940 76.463,180.680 76.699,179.800 76.989 M219.000 77.008 C 222.006 77.685,222.688 77.677,220.600 76.989 C 219.720 76.699,218.460 76.463,217.800 76.464 C 217.051 76.466,217.502 76.670,219.000 77.008 M169.000 80.399 C 168.120 80.816,165.645 81.969,163.500 82.962 C 161.355 83.954,159.600 84.870,159.600 84.997 C 159.600 85.124,159.915 85.060,160.300 84.854 C 161.120 84.416,165.422 82.444,168.000 81.324 C 171.548 79.782,171.792 79.654,171.200 79.647 C 170.870 79.643,169.880 79.981,169.000 80.399 M229.600 80.098 C 230.150 80.342,231.410 80.894,232.400 81.324 C 234.978 82.444,239.280 84.416,240.100 84.854 C 240.485 85.060,240.800 85.123,240.800 84.996 C 240.800 84.784,238.221 83.526,231.888 80.650 C 230.617 80.073,229.357 79.612,229.088 79.627 C 228.820 79.642,229.050 79.854,229.600 80.098 M193.000 86.076 C 191.020 86.278,188.410 86.697,187.200 87.007 C 185.990 87.318,185.630 87.488,186.400 87.385 C 198.434 85.786,202.114 85.786,214.000 87.383 C 214.776 87.488,214.458 87.328,213.288 87.026 C 208.418 85.769,199.906 85.370,193.000 86.076 M153.862 88.208 C 148.997 91.289,142.312 96.632,137.600 101.206 L 133.000 105.671 137.907 101.163 C 143.503 96.022,150.063 90.923,154.300 88.421 C 155.895 87.479,157.200 86.639,157.200 86.554 C 157.200 86.198,156.452 86.569,153.862 88.208 M243.200 86.554 C 243.200 86.639,244.505 87.479,246.100 88.421 C 250.337 90.923,256.897 96.022,262.493 101.163 L 267.400 105.671 262.800 101.208 C 256.513 95.110,243.200 85.156,243.200 86.554 M180.092 88.490 C 178.712 88.945,177.656 89.389,177.745 89.478 C 177.834 89.568,179.053 89.280,180.454 88.840 C 181.854 88.400,183.450 87.966,184.000 87.875 C 184.865 87.731,184.838 87.706,183.800 87.687 C 183.140 87.675,181.471 88.036,180.092 88.490 M216.400 87.875 C 216.950 87.966,218.546 88.400,219.946 88.840 C 221.347 89.280,222.566 89.568,222.655 89.479 C 222.934 89.200,217.429 87.597,216.389 87.654 L 215.400 87.709 216.400 87.875 M174.400 90.376 C 171.351 91.562,167.593 93.326,167.760 93.493 C 167.847 93.580,169.332 93.027,171.059 92.263 C 172.787 91.499,174.920 90.597,175.800 90.258 C 176.680 89.919,177.130 89.649,176.800 89.659 C 176.470 89.668,175.390 89.991,174.400 90.376 M224.600 90.258 C 225.480 90.597,227.613 91.499,229.341 92.263 C 231.068 93.027,232.553 93.580,232.640 93.493 C 232.951 93.182,224.343 89.573,223.406 89.621 C 223.183 89.632,223.720 89.919,224.600 90.258 M165.783 94.139 C 162.801 95.821,159.202 98.135,159.345 98.278 C 159.439 98.372,160.796 97.628,162.362 96.624 C 163.927 95.621,165.352 94.800,165.528 94.800 C 165.703 94.800,166.196 94.536,166.624 94.213 C 167.535 93.523,166.964 93.473,165.783 94.139 M233.776 94.213 C 234.204 94.536,234.697 94.800,234.872 94.800 C 235.048 94.800,236.473 95.621,238.038 96.624 C 239.604 97.628,240.958 98.375,241.048 98.285 C 241.304 98.029,233.921 93.585,233.288 93.613 C 233.130 93.620,233.349 93.890,233.776 94.213 M157.800 98.879 C 148.843 103.973,134.810 119.213,127.304 132.000 C 123.158 139.063,115.964 155.172,116.011 157.287 C 116.018 157.569,117.014 155.190,118.225 152.000 C 126.429 130.396,138.933 113.259,155.349 101.120 C 157.137 99.798,158.675 98.645,158.767 98.558 C 159.076 98.265,158.606 98.421,157.800 98.879 M241.600 98.504 C 241.710 98.621,243.263 99.798,245.051 101.120 C 258.233 110.867,268.680 123.549,276.815 139.679 C 278.224 142.472,279.438 144.696,279.513 144.621 C 279.588 144.546,278.627 142.440,277.377 139.942 C 269.493 124.181,259.496 111.761,246.800 101.952 C 243.989 99.780,240.828 97.684,241.600 98.504 M131.377 107.700 C 128.500 110.777,127.447 112.000,127.676 112.000 C 127.800 112.000,129.110 110.650,130.587 109.000 C 133.461 105.789,134.012 104.882,131.377 107.700 M269.761 108.900 C 271.266 110.605,272.584 112.000,272.689 112.000 C 272.963 112.000,269.063 107.548,267.957 106.600 C 267.444 106.160,268.256 107.195,269.761 108.900 M180.400 109.537 C 179.619 109.684,181.536 109.830,184.734 109.868 C 187.888 109.905,190.408 109.881,190.334 109.815 C 190.017 109.531,181.674 109.297,180.400 109.537 M175.133 110.542 C 174.326 110.794,173.531 111.135,173.366 111.300 C 173.201 111.465,172.782 111.600,172.433 111.601 C 169.247 111.605,158.141 119.846,152.990 126.028 C 149.746 129.922,140.718 144.852,141.273 145.406 C 141.352 145.486,142.747 143.087,144.371 140.075 C 153.540 123.079,164.277 113.447,177.400 110.446 C 178.786 110.129,178.839 110.081,177.800 110.082 C 177.140 110.083,175.940 110.290,175.133 110.542 M191.711 110.854 C 195.049 113.344,194.566 118.203,190.792 120.099 C 190.026 120.484,189.701 120.799,190.069 120.799 C 191.929 120.801,194.400 117.430,194.400 114.892 C 194.400 113.299,192.137 109.984,191.069 110.013 C 190.811 110.020,191.100 110.398,191.711 110.854 M123.915 116.900 C 121.170 120.547,115.802 129.124,117.092 127.800 C 117.306 127.580,118.525 125.690,119.800 123.600 C 121.753 120.400,123.083 118.483,126.117 114.500 C 126.327 114.225,126.408 114.000,126.297 114.000 C 126.187 114.000,125.115 115.305,123.915 116.900 M274.283 114.500 C 277.399 118.591,278.738 120.544,281.207 124.600 C 283.989 129.170,285.489 131.345,284.386 129.210 C 282.363 125.290,274.729 114.000,274.103 114.000 C 273.992 114.000,274.073 114.225,274.283 114.500 M180.900 121.076 C 181.285 121.176,181.915 121.176,182.300 121.076 C 182.685 120.975,182.370 120.893,181.600 120.893 C 180.830 120.893,180.515 120.975,180.900 121.076 M185.091 121.089 C 185.801 121.177,187.061 121.179,187.891 121.092 C 188.721 121.005,188.140 120.933,186.600 120.931 C 185.060 120.929,184.381 121.000,185.091 121.089 M178.000 121.600 C 177.196 121.857,177.157 121.923,177.800 121.932 C 178.240 121.938,178.960 121.789,179.400 121.600 C 180.419 121.162,179.368 121.162,178.000 121.600 M173.409 123.324 C 165.276 128.226,158.911 135.526,153.462 146.200 C 151.023 150.979,148.290 157.224,148.532 157.466 C 148.615 157.549,149.381 155.954,150.233 153.921 C 152.062 149.560,156.535 140.948,157.566 139.803 C 157.964 139.361,159.105 137.740,160.101 136.200 C 163.205 131.406,168.878 126.165,173.600 123.731 C 174.590 123.221,175.130 122.813,174.800 122.825 C 174.470 122.837,173.844 123.061,173.409 123.324 M115.623 129.850 C 115.153 130.648,114.833 131.366,114.913 131.446 C 114.992 131.526,115.461 130.873,115.954 129.996 C 117.075 128.002,116.788 127.877,115.623 129.850 M113.662 133.662 C 113.177 134.570,112.862 135.395,112.962 135.495 C 113.062 135.595,113.515 134.909,113.969 133.969 C 114.423 133.030,114.738 132.205,114.669 132.135 C 114.600 132.066,114.146 132.753,113.662 133.662 M285.600 132.096 C 285.600 132.513,287.340 135.593,287.491 135.442 C 287.573 135.361,287.251 134.598,286.777 133.747 C 285.851 132.087,285.600 131.735,285.600 132.096 M110.678 139.820 C 110.085 141.029,109.600 142.239,109.600 142.509 C 109.600 142.779,110.145 141.849,110.810 140.443 C 111.475 139.037,111.960 137.827,111.888 137.754 C 111.815 137.682,111.271 138.611,110.678 139.820 M288.419 137.664 C 288.408 137.809,288.940 139.069,289.600 140.464 C 290.260 141.859,290.791 142.730,290.781 142.400 C 290.762 141.797,288.454 137.170,288.419 137.664 M107.657 147.244 C 107.186 148.378,106.808 149.508,106.817 149.753 C 106.826 149.999,107.276 149.135,107.817 147.833 C 108.357 146.531,108.735 145.402,108.657 145.324 C 108.579 145.245,108.129 146.109,107.657 147.244 M291.633 145.232 C 291.615 145.360,292.042 146.530,292.583 147.832 C 293.124 149.134,293.563 149.930,293.559 149.600 C 293.551 149.001,291.696 144.793,291.633 145.232 M140.550 146.643 C 140.403 147.059,140.036 148.013,139.736 148.761 C 139.435 149.510,139.256 150.189,139.338 150.271 C 139.419 150.352,139.873 149.486,140.347 148.347 C 140.820 147.207,141.120 146.187,141.013 146.080 C 140.906 145.973,140.698 146.226,140.550 146.643 M280.437 147.000 C 280.429 147.220,281.328 149.740,282.435 152.600 C 283.542 155.460,284.344 157.306,284.217 156.701 C 283.935 155.362,280.458 146.438,280.437 147.000 M138.057 152.844 C 137.586 153.978,137.208 155.108,137.217 155.353 C 137.226 155.599,137.676 154.735,138.217 153.433 C 138.757 152.131,139.135 151.002,139.057 150.924 C 138.979 150.845,138.529 151.709,138.057 152.844 M136.600 156.800 C 136.450 157.273,136.417 157.750,136.527 157.860 C 136.637 157.970,136.850 157.673,137.000 157.200 C 137.150 156.727,137.183 156.250,137.073 156.140 C 136.963 156.030,136.750 156.327,136.600 156.800 M104.200 157.200 C 104.050 157.673,104.017 158.150,104.127 158.260 C 104.237 158.370,104.450 158.073,104.600 157.600 C 104.750 157.127,104.783 156.650,104.673 156.540 C 104.563 156.430,104.350 156.727,104.200 157.200 M295.612 156.800 C 295.612 157.130,295.787 157.670,296.000 158.000 C 296.345 158.533,296.388 158.533,296.388 158.000 C 296.388 157.670,296.213 157.130,296.000 156.800 C 295.655 156.267,295.612 156.267,295.612 156.800 M147.244 160.644 C 146.748 162.091,146.426 163.359,146.528 163.462 C 146.631 163.564,147.103 162.447,147.578 160.978 C 148.701 157.502,148.420 157.220,147.244 160.644 M135.691 159.700 C 135.421 160.446,135.213 161.314,135.228 161.628 C 135.244 161.943,135.517 161.489,135.835 160.620 C 136.153 159.751,136.361 158.883,136.297 158.692 C 136.233 158.500,135.960 158.954,135.691 159.700 M114.467 162.267 C 114.196 163.279,114.045 164.179,114.132 164.265 C 114.219 164.352,114.519 163.603,114.800 162.600 C 115.081 161.597,115.231 160.698,115.135 160.601 C 115.038 160.505,114.737 161.254,114.467 162.267 M285.257 161.000 C 285.261 161.834,286.321 164.900,286.363 164.200 C 286.377 163.980,286.133 162.990,285.821 162.000 C 285.509 161.010,285.255 160.560,285.257 161.000 M134.643 163.033 C 134.251 164.053,134.363 166.382,134.850 167.326 C 135.450 168.492,136.846 170.000,137.324 170.000 C 137.535 170.000,137.247 169.637,136.683 169.194 C 135.391 168.178,134.646 165.967,134.916 163.953 C 135.136 162.308,135.042 161.991,134.643 163.033 M102.200 164.400 C 102.048 165.091,102.007 165.741,102.109 165.842 C 102.211 165.944,102.409 165.453,102.550 164.750 C 102.883 163.083,102.560 162.760,102.200 164.400 M297.668 163.600 C 297.688 164.639,298.318 166.346,298.332 165.400 C 298.338 164.960,298.189 164.240,298.000 163.800 C 297.789 163.310,297.661 163.232,297.668 163.600 M113.429 165.829 C 113.281 166.415,113.238 166.972,113.332 167.066 C 113.427 167.160,113.624 166.758,113.771 166.171 C 113.919 165.585,113.962 165.028,113.868 164.934 C 113.773 164.840,113.576 165.242,113.429 165.829 M286.456 165.200 C 286.456 165.530,286.611 166.160,286.800 166.600 C 287.017 167.104,287.144 167.178,287.144 166.800 C 287.144 166.470,286.989 165.840,286.800 165.400 C 286.583 164.896,286.456 164.822,286.456 165.200 M144.723 167.601 C 143.675 169.433,141.716 170.476,139.707 170.272 C 138.776 170.177,138.112 170.257,138.231 170.450 C 139.291 172.165,146.186 168.723,145.532 166.805 C 145.459 166.592,145.096 166.950,144.723 167.601 M101.251 168.962 C 101.003 169.948,100.814 171.170,100.832 171.677 C 100.849 172.185,101.115 171.441,101.422 170.024 C 102.061 167.076,101.931 166.264,101.251 168.962 M298.468 167.400 C 298.459 167.620,298.695 168.880,298.992 170.200 C 299.330 171.698,299.534 172.149,299.536 171.400 C 299.538 170.316,298.506 166.451,298.468 167.400 M112.447 170.447 C 112.161 171.994,112.004 173.338,112.099 173.432 C 112.193 173.527,112.509 172.342,112.800 170.800 C 113.091 169.258,113.248 167.914,113.148 167.815 C 113.049 167.715,112.733 168.900,112.447 170.447 M287.250 168.400 C 287.241 168.950,287.481 170.390,287.783 171.600 C 288.494 174.450,288.515 172.938,287.808 169.800 C 287.510 168.480,287.260 167.850,287.250 168.400 M100.256 173.684 C 100.121 174.188,100.027 174.960,100.046 175.400 C 100.065 175.840,100.245 175.498,100.446 174.640 C 100.836 172.978,100.670 172.140,100.256 173.684 M299.862 174.200 C 299.996 175.080,300.172 175.875,300.253 175.967 C 300.556 176.310,300.329 174.168,299.981 173.400 C 299.729 172.842,299.693 173.085,299.862 174.200 M111.422 175.422 C 111.272 176.225,111.228 176.962,111.326 177.060 C 111.424 177.157,111.627 176.581,111.778 175.778 C 111.928 174.975,111.972 174.238,111.874 174.140 C 111.776 174.043,111.573 174.619,111.422 175.422 M288.480 174.600 C 288.480 175.040,288.624 175.850,288.800 176.400 C 289.054 177.192,289.120 177.233,289.120 176.600 C 289.120 176.160,288.976 175.350,288.800 174.800 C 288.546 174.008,288.480 173.967,288.480 174.600 M99.385 179.785 C 99.230 181.023,99.193 182.127,99.303 182.237 C 99.413 182.347,99.630 181.423,99.785 180.185 C 99.939 178.946,99.976 177.843,99.866 177.733 C 99.756 177.623,99.539 178.546,99.385 179.785 M110.441 182.307 C 110.133 185.006,109.998 187.331,110.141 187.474 C 110.283 187.617,110.400 187.133,110.400 186.399 C 110.400 185.666,110.594 183.954,110.830 182.596 C 111.067 181.238,111.202 179.513,111.130 178.763 C 111.059 178.013,110.748 179.608,110.441 182.307 M289.442 180.400 C 289.761 184.668,290.278 188.196,290.322 186.400 C 290.340 185.630,290.100 183.290,289.787 181.200 C 289.231 177.489,289.223 177.471,289.442 180.400 M300.470 178.400 C 300.457 178.950,300.595 180.120,300.777 181.000 L 301.108 182.600 301.107 181.200 C 301.105 179.435,300.509 176.812,300.470 178.400 M98.867 184.276 C 98.830 185.198,98.620 186.064,98.400 186.200 C 98.180 186.336,98.017 187.472,98.038 188.724 L 98.075 191.000 98.643 188.200 C 98.956 186.660,99.149 184.770,99.073 184.000 C 98.943 182.685,98.930 182.701,98.867 184.276 M301.292 184.200 C 301.268 185.080,301.491 186.970,301.785 188.400 L 302.322 191.000 302.361 188.780 C 302.382 187.559,302.232 186.389,302.027 186.180 C 301.821 185.971,301.582 185.080,301.494 184.200 L 301.334 182.600 301.292 184.200 M109.463 192.500 C 108.937 201.631,109.315 210.919,110.608 220.600 C 111.258 225.473,113.121 234.712,113.169 233.306 C 113.186 232.815,112.773 230.295,112.251 227.706 C 110.221 217.642,109.398 206.920,109.792 195.700 C 110.087 187.310,109.879 185.285,109.463 192.500 M290.685 195.600 C 290.973 207.202,290.128 217.890,288.149 227.706 C 287.627 230.295,287.214 232.815,287.231 233.306 C 287.279 234.712,289.142 225.473,289.792 220.600 C 291.120 210.655,291.506 199.511,290.804 191.400 C 290.595 188.989,290.556 190.375,290.685 195.600 M98.033 212.876 C 98.015 213.908,98.180 214.864,98.400 215.000 C 98.620 215.136,98.831 216.092,98.870 217.124 C 98.939 218.987,98.941 218.989,99.086 217.400 C 99.166 216.520,98.970 214.720,98.649 213.400 L 98.067 211.000 98.033 212.876 M301.667 213.800 C 301.374 215.120,301.210 216.830,301.303 217.600 C 301.454 218.853,301.479 218.809,301.536 217.180 C 301.571 216.179,301.792 215.168,302.027 214.933 C 302.262 214.698,302.397 213.807,302.327 212.953 C 302.203 211.433,302.189 211.451,301.667 213.800 M99.273 220.200 C 99.258 220.860,99.395 222.120,99.577 223.000 C 100.013 225.106,100.050 223.214,99.620 220.800 C 99.380 219.450,99.293 219.300,99.273 220.200 M300.646 221.846 C 300.500 223.093,300.459 224.193,300.557 224.290 C 300.654 224.388,300.861 223.454,301.015 222.215 C 301.170 220.977,301.210 219.877,301.105 219.771 C 300.999 219.666,300.793 220.599,300.646 221.846 M100.087 226.000 C 100.083 226.550,100.224 227.450,100.400 228.000 C 100.831 229.344,100.831 227.892,100.400 226.200 C 100.126 225.122,100.094 225.102,100.087 226.000 M299.840 226.840 C 299.693 227.757,299.652 228.585,299.747 228.680 C 299.842 228.776,300.046 228.110,300.200 227.200 C 300.354 226.290,300.396 225.462,300.293 225.360 C 300.190 225.257,299.987 225.923,299.840 226.840 M100.841 230.000 C 100.827 230.550,101.066 231.900,101.372 233.000 C 102.087 235.571,102.111 234.520,101.408 231.400 C 101.110 230.080,100.855 229.450,100.841 230.000 M299.293 230.400 C 299.293 231.170,299.375 231.485,299.476 231.100 C 299.576 230.715,299.576 230.085,299.476 229.700 C 299.375 229.315,299.293 229.630,299.293 230.400 M298.650 233.250 C 298.509 233.953,298.469 234.602,298.559 234.692 C 298.650 234.783,298.848 234.291,299.000 233.600 C 299.152 232.909,299.193 232.259,299.091 232.158 C 298.989 232.056,298.791 232.547,298.650 233.250 M113.234 234.800 C 113.246 235.130,113.411 235.760,113.600 236.200 L 113.944 237.000 113.966 236.200 C 113.978 235.760,113.813 235.130,113.600 234.800 C 113.255 234.267,113.215 234.267,113.234 234.800 M286.673 234.953 C 286.523 235.345,286.411 235.966,286.425 236.333 C 286.442 236.775,286.581 236.674,286.837 236.034 C 287.049 235.503,287.161 234.882,287.085 234.654 C 287.009 234.427,286.824 234.561,286.673 234.953 M102.006 236.233 C 102.009 236.655,102.195 237.270,102.418 237.600 C 102.715 238.038,102.752 237.876,102.556 237.000 C 102.227 235.529,101.998 235.210,102.006 236.233 M297.829 236.629 C 297.681 237.215,297.651 237.784,297.761 237.894 C 297.871 238.004,298.081 237.615,298.229 237.029 C 298.376 236.442,298.406 235.873,298.296 235.763 C 298.186 235.653,297.976 236.042,297.829 236.629 M114.042 237.400 C 114.021 237.620,114.436 239.150,114.963 240.800 C 115.490 242.450,115.938 243.620,115.958 243.400 C 115.979 243.180,115.564 241.650,115.037 240.000 C 114.510 238.350,114.062 237.180,114.042 237.400 M285.240 240.240 C 284.753 241.916,284.426 243.360,284.514 243.448 C 284.602 243.536,285.073 242.236,285.560 240.560 C 286.047 238.884,286.374 237.440,286.286 237.352 C 286.198 237.264,285.727 238.564,285.240 240.240 M102.857 239.000 C 102.861 239.834,103.921 242.900,103.963 242.200 C 103.977 241.980,103.733 240.990,103.421 240.000 C 103.109 239.010,102.855 238.560,102.857 239.000 M296.831 240.431 C 296.547 241.540,296.390 242.523,296.483 242.617 C 296.576 242.710,296.885 241.878,297.169 240.769 C 297.453 239.660,297.610 238.677,297.517 238.583 C 297.424 238.490,297.115 239.322,296.831 240.431 M116.000 244.235 C 116.000 244.808,117.898 249.901,118.406 250.693 C 118.935 251.516,118.944 251.547,117.303 247.000 C 116.277 244.160,116.000 243.571,116.000 244.235 M283.126 246.912 C 281.526 251.393,281.498 251.489,282.123 250.400 C 282.856 249.125,284.524 244.391,284.315 244.182 C 284.228 244.095,283.693 245.323,283.126 246.912 M104.818 246.054 C 104.808 246.414,105.063 247.314,105.384 248.054 C 106.140 249.794,106.158 249.073,105.412 247.000 C 105.095 246.120,104.827 245.694,104.818 246.054 M106.816 251.854 C 106.807 252.104,107.063 252.914,107.384 253.654 C 107.706 254.394,107.976 254.796,107.984 254.546 C 107.993 254.296,107.737 253.486,107.416 252.746 C 107.094 252.006,106.824 251.604,106.816 251.854 M118.800 251.951 C 118.800 252.707,122.277 260.400,122.619 260.400 C 122.745 260.400,122.770 260.265,122.675 260.100 C 122.120 259.134,120.048 254.369,119.631 253.100 C 119.164 251.680,118.800 251.176,118.800 251.951 M280.778 253.073 C 280.354 254.363,278.285 259.125,277.725 260.100 C 277.630 260.265,277.654 260.400,277.777 260.400 C 277.901 260.400,278.597 259.095,279.326 257.500 C 281.247 253.291,281.735 252.001,281.494 251.760 C 281.376 251.643,281.054 252.233,280.778 253.073 M292.891 252.900 C 292.210 254.784,292.304 255.294,293.026 253.630 C 293.353 252.877,293.566 252.099,293.501 251.902 C 293.435 251.705,293.160 252.154,292.891 252.900 M292.000 255.284 C 292.000 255.404,291.728 256.154,291.395 256.951 C 291.062 257.748,290.879 258.400,290.989 258.400 C 291.306 258.400,292.433 255.500,292.205 255.272 C 292.092 255.159,292.000 255.165,292.000 255.284 M108.828 257.400 C 108.828 257.620,109.086 258.250,109.400 258.800 C 109.714 259.350,109.972 259.620,109.972 259.400 C 109.972 259.180,109.714 258.550,109.400 258.000 C 109.086 257.450,108.828 257.180,108.828 257.400 M290.065 259.817 C 289.395 261.288,289.523 261.602,290.247 260.265 C 290.586 259.640,290.788 259.054,290.696 258.963 C 290.605 258.871,290.321 259.256,290.065 259.817 M122.800 260.947 C 122.800 263.232,133.370 279.369,139.341 286.200 C 144.548 292.157,155.198 301.431,158.800 303.147 L 159.800 303.623 158.812 302.912 C 150.552 296.965,143.298 290.380,137.792 283.832 C 134.815 280.292,128.000 270.473,128.000 269.724 C 128.000 269.580,127.747 269.179,127.437 268.831 C 127.128 268.484,126.027 266.580,124.991 264.600 C 123.043 260.878,122.800 260.473,122.800 260.947 M275.855 263.769 C 275.039 265.398,273.927 267.385,273.385 268.184 C 272.843 268.982,272.400 269.714,272.400 269.810 C 272.400 270.100,269.672 274.271,267.060 277.975 C 260.641 287.077,252.470 295.077,241.588 302.912 L 240.600 303.623 241.600 303.147 C 247.340 300.413,259.846 288.434,266.808 279.000 C 270.841 273.535,277.995 261.462,277.496 260.963 C 277.410 260.877,276.671 262.139,275.855 263.769 M289.200 261.684 C 289.200 261.804,288.928 262.554,288.595 263.351 C 288.262 264.148,288.079 264.800,288.189 264.800 C 288.506 264.800,289.633 261.900,289.405 261.672 C 289.292 261.559,289.200 261.565,289.200 261.684 M285.600 269.200 C 284.715 270.960,284.081 272.400,284.191 272.400 C 284.301 272.400,285.115 270.960,286.000 269.200 C 286.885 267.440,287.519 266.000,287.409 266.000 C 287.299 266.000,286.485 267.440,285.600 269.200 M113.606 267.677 C 113.598 268.039,115.228 270.800,115.450 270.800 C 115.544 270.800,115.353 270.305,115.025 269.700 C 114.210 268.195,113.613 267.344,113.606 267.677 M115.606 271.277 C 115.598 271.639,117.228 274.400,117.450 274.400 C 117.544 274.400,117.353 273.905,117.025 273.300 C 116.210 271.795,115.613 270.944,115.606 271.277 M281.011 277.300 C 275.491 286.090,269.405 293.595,261.849 300.932 L 257.800 304.864 261.311 301.732 C 268.538 295.286,279.030 282.192,283.175 274.446 C 284.245 272.447,283.160 273.877,281.011 277.300 M117.600 274.913 C 117.600 275.295,120.450 279.600,120.703 279.600 C 120.807 279.600,120.572 279.105,120.182 278.500 C 118.444 275.808,117.600 274.636,117.600 274.913 M122.687 282.900 C 127.435 290.252,140.537 304.070,146.458 307.970 L 147.800 308.854 146.414 307.727 C 137.651 300.602,128.542 290.918,123.248 283.100 C 121.651 280.742,121.185 280.576,122.687 282.900 M160.000 303.710 C 160.000 305.639,185.281 315.652,186.663 314.271 C 186.773 314.160,185.814 313.870,184.532 313.626 C 182.087 313.161,176.295 311.406,175.105 310.771 C 174.723 310.567,174.131 310.400,173.789 310.400 C 173.447 310.400,172.140 309.872,170.884 309.226 C 169.628 308.580,167.610 307.601,166.400 307.051 C 165.190 306.501,163.255 305.484,162.100 304.792 C 160.945 304.100,160.000 303.613,160.000 303.710 M237.200 305.400 C 235.550 306.385,234.048 307.193,233.863 307.195 C 233.677 307.198,232.097 307.920,230.352 308.800 C 228.607 309.680,226.911 310.400,226.584 310.400 C 226.257 310.400,225.677 310.567,225.295 310.771 C 224.105 311.406,218.313 313.161,215.868 313.626 C 214.586 313.870,213.627 314.160,213.737 314.271 C 215.101 315.634,240.400 305.645,240.400 303.743 C 240.400 303.499,240.281 303.561,237.200 305.400 M254.000 307.541 C 252.130 309.032,248.539 311.545,246.020 313.126 C 243.501 314.707,241.597 316.000,241.788 316.000 C 242.869 316.000,257.600 305.719,257.600 304.965 C 257.600 304.681,257.478 304.768,254.000 307.541 M148.000 308.946 C 148.000 309.056,148.540 309.530,149.200 310.000 C 149.860 310.470,150.400 310.764,150.400 310.654 C 150.400 310.544,149.860 310.070,149.200 309.600 C 148.540 309.130,148.000 308.836,148.000 308.946 M150.800 311.008 C 150.800 311.092,151.565 311.682,152.500 312.318 C 154.441 313.638,158.312 315.874,157.976 315.481 C 157.646 315.095,150.800 310.828,150.800 311.008 M188.600 314.800 C 189.260 314.968,190.340 315.105,191.000 315.105 L 192.200 315.105 191.000 314.800 C 190.340 314.632,189.260 314.495,188.600 314.495 L 187.400 314.495 188.600 314.800 M209.400 314.800 L 208.200 315.105 209.400 315.105 C 210.060 315.105,211.140 314.968,211.800 314.800 L 213.000 314.495 211.800 314.495 C 211.140 314.495,210.060 314.632,209.400 314.800 M192.400 315.300 C 192.400 315.465,195.910 315.600,200.200 315.600 C 204.490 315.600,208.000 315.465,208.000 315.300 C 208.000 315.135,204.490 315.000,200.200 315.000 C 195.910 315.000,192.400 315.135,192.400 315.300 M158.400 315.752 C 158.400 316.053,161.295 317.638,161.489 317.444 C 161.593 317.341,160.940 316.880,160.039 316.420 C 159.137 315.960,158.400 315.660,158.400 315.752 M236.800 318.200 C 235.370 318.949,234.340 319.570,234.511 319.581 C 234.937 319.607,239.600 317.237,239.600 316.994 C 239.600 316.725,239.694 316.685,236.800 318.200 M162.800 318.200 C 163.350 318.514,163.980 318.772,164.200 318.772 C 164.420 318.772,164.150 318.514,163.600 318.200 C 163.050 317.886,162.420 317.628,162.200 317.628 C 161.980 317.628,162.250 317.886,162.800 318.200 M168.200 320.609 C 169.300 321.127,170.470 321.554,170.800 321.559 C 171.130 321.563,170.334 321.124,169.032 320.583 C 166.054 319.347,165.553 319.362,168.200 320.609 M231.200 320.616 C 229.990 321.137,229.270 321.560,229.600 321.557 C 229.930 321.554,231.100 321.127,232.200 320.609 C 234.799 319.385,234.050 319.390,231.200 320.616 M227.000 322.214 C 226.340 322.517,226.070 322.766,226.400 322.768 C 226.730 322.770,227.450 322.514,228.000 322.200 C 229.265 321.477,228.589 321.487,227.000 322.214 M224.000 323.200 C 223.176 323.464,223.141 323.526,223.800 323.554 C 224.240 323.573,224.870 323.413,225.200 323.200 C 225.901 322.747,225.414 322.747,224.000 323.200 M178.000 324.000 C 178.330 324.213,178.960 324.378,179.400 324.366 L 180.200 324.344 179.400 324.000 C 178.204 323.486,177.205 323.486,178.000 324.000 M182.400 325.017 C 183.610 325.319,185.050 325.559,185.600 325.550 C 186.150 325.540,185.520 325.290,184.200 324.992 C 181.062 324.285,179.550 324.306,182.400 325.017 M186.790 326.100 C 186.784 326.375,185.339 327.472,183.579 328.537 C 179.023 331.294,172.380 338.276,172.404 340.281 C 172.406 340.456,173.116 339.484,173.981 338.120 C 176.155 334.694,179.790 331.236,183.809 328.771 C 185.674 327.628,187.200 326.446,187.200 326.146 C 187.200 325.462,186.804 325.418,186.790 326.100 M218.095 327.800 C 218.095 328.460,218.232 329.540,218.400 330.200 L 218.705 331.400 218.705 330.200 C 218.705 329.540,218.568 328.460,218.400 327.800 L 218.095 326.600 218.095 327.800 M205.803 328.795 C 205.668 329.013,205.805 329.096,206.107 328.980 C 206.648 328.773,207.600 332.495,207.600 334.813 C 207.600 335.319,207.719 335.614,207.865 335.469 C 208.336 334.998,207.117 328.400,206.559 328.400 C 206.278 328.400,205.937 328.578,205.803 328.795 M202.600 329.811 C 201.720 330.101,201.360 330.339,201.800 330.339 C 202.240 330.339,203.230 330.097,204.000 329.800 C 205.795 329.109,204.705 329.117,202.600 329.811 M198.700 331.029 C 197.969 331.425,197.618 331.923,197.654 332.513 L 197.709 333.400 197.878 332.533 C 197.983 331.992,198.601 331.437,199.523 331.054 C 200.336 330.717,200.730 330.439,200.400 330.437 C 200.070 330.434,199.305 330.701,198.700 331.029 M218.909 333.200 C 218.909 334.190,218.987 334.595,219.082 334.100 C 219.178 333.605,219.178 332.795,219.082 332.300 C 218.987 331.805,218.909 332.210,218.909 333.200 M197.293 334.800 C 197.293 335.570,197.375 335.885,197.476 335.500 C 197.576 335.115,197.576 334.485,197.476 334.100 C 197.375 333.715,197.293 334.030,197.293 334.800 M219.485 337.600 C 219.607 339.030,219.772 340.275,219.853 340.367 C 220.120 340.670,219.911 337.422,219.585 336.200 C 219.382 335.444,219.346 335.962,219.485 337.600 M196.622 337.822 C 196.472 338.625,196.428 339.362,196.526 339.460 C 196.624 339.557,196.827 338.981,196.978 338.178 C 197.128 337.375,197.172 336.638,197.074 336.540 C 196.976 336.443,196.773 337.019,196.622 337.822 M208.086 337.600 C 208.083 338.370,208.224 339.450,208.400 340.000 C 208.850 341.404,208.865 339.937,208.423 337.800 L 208.092 336.200 208.086 337.600 M183.379 339.077 C 180.381 342.286,178.770 346.182,178.861 350.000 L 178.914 352.200 179.197 349.600 C 179.711 344.887,180.971 342.015,183.830 339.039 C 184.867 337.960,184.968 337.931,185.245 338.639 C 185.497 339.279,185.548 339.293,185.572 338.724 C 185.626 337.429,184.793 337.563,183.379 339.077 M184.600 341.200 C 184.446 342.110,184.404 342.938,184.507 343.040 C 184.610 343.143,184.813 342.477,184.960 341.560 C 185.107 340.643,185.148 339.815,185.053 339.720 C 184.958 339.624,184.754 340.290,184.600 341.200 M195.822 342.222 C 195.672 343.025,195.638 343.772,195.748 343.882 C 195.858 343.992,196.072 343.425,196.222 342.622 C 196.373 341.819,196.406 341.073,196.296 340.963 C 196.186 340.853,195.973 341.419,195.822 342.222 M220.087 342.400 C 220.091 342.950,220.232 343.940,220.400 344.600 L 220.705 345.800 220.713 344.600 C 220.717 343.940,220.576 342.950,220.400 342.400 L 220.080 341.400 220.087 342.400 M208.864 343.519 L 208.800 345.237 202.199 345.119 C 198.569 345.053,195.599 345.135,195.599 345.300 C 195.600 345.465,198.576 345.600,202.213 345.600 C 209.469 345.600,209.397 345.626,209.092 343.138 C 208.946 341.945,208.921 341.986,208.864 343.519 M171.022 344.222 C 170.872 345.025,170.828 345.762,170.926 345.860 C 171.024 345.957,171.227 345.381,171.378 344.578 C 171.528 343.775,171.572 343.038,171.474 342.940 C 171.376 342.843,171.173 343.419,171.022 344.222 M183.657 346.257 C 182.808 350.485,183.031 352.840,184.429 354.415 L 185.658 355.800 184.629 354.362 C 183.464 352.735,183.263 350.012,184.039 346.392 C 184.281 345.266,184.396 344.263,184.296 344.163 C 184.196 344.063,183.909 345.005,183.657 346.257 M170.493 347.600 C 170.493 348.370,170.575 348.685,170.676 348.300 C 170.776 347.915,170.776 347.285,170.676 346.900 C 170.575 346.515,170.493 346.830,170.493 347.600 M220.840 347.833 C 220.862 348.695,221.027 349.850,221.207 350.400 C 221.411 351.021,221.451 350.491,221.312 349.000 C 221.054 346.221,220.782 345.549,220.840 347.833 M170.600 355.400 C 170.662 357.380,170.917 359.450,171.167 360.000 C 171.581 360.910,171.598 360.874,171.357 359.600 C 171.212 358.830,170.957 356.760,170.791 355.000 L 170.488 351.800 170.600 355.400 M220.800 352.440 C 220.800 352.902,220.188 353.892,219.440 354.640 C 218.692 355.388,218.223 356.000,218.399 356.000 C 219.005 356.000,221.200 353.169,221.200 352.386 C 221.200 351.954,221.110 351.600,221.000 351.600 C 220.890 351.600,220.800 351.978,220.800 352.440 M178.880 355.000 C 178.880 355.440,179.024 356.250,179.200 356.800 C 179.454 357.592,179.520 357.633,179.520 357.000 C 179.520 356.560,179.376 355.750,179.200 355.200 C 178.946 354.408,178.880 354.367,178.880 355.000 M187.514 356.472 C 188.447 356.842,216.482 356.863,217.062 356.494 C 217.315 356.332,210.617 356.200,202.176 356.200 C 193.735 356.200,187.137 356.322,187.514 356.472 M171.606 362.233 C 171.609 362.655,171.795 363.270,172.018 363.600 C 172.315 364.038,172.352 363.876,172.156 363.000 C 171.827 361.529,171.598 361.210,171.606 362.233 M180.863 363.400 C 180.862 363.620,181.103 364.430,181.400 365.200 C 181.697 365.970,181.945 366.330,181.952 366.000 C 181.958 365.670,181.717 364.860,181.414 364.200 C 181.112 363.540,180.864 363.180,180.863 363.400 M182.607 368.279 C 183.207 369.714,183.600 370.362,183.600 369.916 C 183.600 369.484,182.385 366.800,182.189 366.800 C 182.079 366.800,182.267 367.466,182.607 368.279 M173.617 368.647 C 173.595 369.228,175.271 373.263,175.457 373.076 C 175.535 372.998,175.157 371.869,174.617 370.567 C 174.076 369.265,173.626 368.401,173.617 368.647 M183.628 370.600 C 183.628 370.820,183.886 371.450,184.200 372.000 C 184.514 372.550,184.772 372.820,184.772 372.600 C 184.772 372.380,184.514 371.750,184.200 371.200 C 183.886 370.650,183.628 370.380,183.628 370.600 M185.646 374.796 C 186.139 375.673,186.608 376.326,186.687 376.246 C 186.859 376.074,185.206 373.200,184.935 373.200 C 184.833 373.200,185.152 373.918,185.646 374.796 M176.428 375.400 C 176.428 375.620,176.686 376.250,177.000 376.800 C 177.314 377.350,177.572 377.620,177.572 377.400 C 177.572 377.180,177.314 376.550,177.000 376.000 C 176.686 375.450,176.428 375.180,176.428 375.400 M188.036 379.207 C 188.742 380.531,189.382 381.552,189.458 381.475 C 189.631 381.302,187.212 376.800,186.946 376.800 C 186.840 376.800,187.330 377.883,188.036 379.207 M177.717 378.300 C 182.226 386.560,183.715 389.200,183.864 389.200 C 183.965 389.200,183.974 389.065,183.883 388.900 C 179.374 380.640,177.885 378.000,177.736 378.000 C 177.635 378.000,177.626 378.135,177.717 378.300 M190.400 383.600 C 190.849 384.480,191.306 385.200,191.416 385.200 C 191.526 385.200,191.249 384.480,190.800 383.600 C 190.351 382.720,189.894 382.000,189.784 382.000 C 189.674 382.000,189.951 382.720,190.400 383.600 M192.587 387.400 C 193.203 388.500,193.892 389.580,194.119 389.800 C 194.346 390.020,194.028 389.300,193.413 388.200 C 192.797 387.100,192.108 386.020,191.881 385.800 C 191.654 385.580,191.972 386.300,192.587 387.400 M185.387 392.200 C 186.003 393.300,186.692 394.380,186.919 394.600 C 187.146 394.820,186.828 394.100,186.213 393.000 C 185.597 391.900,184.908 390.820,184.681 390.600 C 184.454 390.380,184.772 391.100,185.387 392.200 M194.518 390.700 C 195.724 392.883,198.132 396.800,198.269 396.800 C 198.479 396.800,198.573 396.979,196.412 393.300 C 195.475 391.705,194.629 390.400,194.531 390.400 C 194.433 390.400,194.427 390.535,194.518 390.700 M188.481 397.570 C 189.203 398.873,189.860 399.874,189.940 399.793 C 190.113 399.620,187.626 395.200,187.355 395.200 C 187.252 395.200,187.759 396.266,188.481 397.570 M198.987 398.375 C 199.321 399.021,199.776 399.661,199.998 399.799 C 200.220 399.936,200.023 399.407,199.561 398.624 C 198.548 396.907,198.135 396.728,198.987 398.375 " stroke="none" fill="#9e9898" fill-rule="evenodd"></path><path id="path4" d="M189.800 75.392 C 186.610 76.064,188.704 76.079,193.600 75.420 C 197.393 74.910,197.395 74.909,194.800 74.898 C 193.370 74.892,191.120 75.114,189.800 75.392 M207.000 75.424 C 212.051 76.095,213.797 76.068,210.400 75.371 C 208.970 75.077,206.720 74.850,205.400 74.865 C 203.197 74.890,203.328 74.936,207.000 75.424 M184.600 76.400 C 183.522 76.674,183.502 76.706,184.400 76.713 C 184.950 76.717,185.850 76.576,186.400 76.400 C 187.744 75.969,186.292 75.969,184.600 76.400 M214.000 76.400 C 214.550 76.576,215.450 76.717,216.000 76.713 C 216.898 76.706,216.878 76.674,215.800 76.400 C 214.108 75.969,212.656 75.969,214.000 76.400 M178.481 77.679 C 176.876 78.128,175.633 78.567,175.720 78.654 C 175.807 78.741,177.481 78.372,179.439 77.835 C 181.398 77.298,182.640 76.859,182.200 76.860 C 181.760 76.861,180.086 77.229,178.481 77.679 M220.961 77.835 C 222.919 78.372,224.592 78.741,224.679 78.655 C 224.876 78.457,218.750 76.790,217.973 76.829 C 217.658 76.845,219.002 77.298,220.961 77.835 M171.904 79.715 C 170.641 80.169,169.675 80.608,169.757 80.691 C 169.937 80.871,175.200 79.202,175.200 78.965 C 175.200 78.660,174.216 78.884,171.904 79.715 M225.200 78.965 C 225.200 79.200,230.462 80.872,230.639 80.694 C 230.779 80.555,225.969 78.800,225.447 78.800 C 225.311 78.800,225.200 78.874,225.200 78.965 M166.000 82.200 C 165.450 82.514,165.180 82.772,165.400 82.772 C 165.620 82.772,166.250 82.514,166.800 82.200 C 167.350 81.886,167.620 81.628,167.400 81.628 C 167.180 81.628,166.550 81.886,166.000 82.200 M233.600 82.200 C 234.150 82.514,234.780 82.772,235.000 82.772 C 235.220 82.772,234.950 82.514,234.400 82.200 C 233.850 81.886,233.220 81.628,233.000 81.628 C 232.780 81.628,233.050 81.886,233.600 82.200 M161.600 84.200 C 161.050 84.514,160.780 84.772,161.000 84.772 C 161.220 84.772,161.850 84.514,162.400 84.200 C 162.950 83.886,163.220 83.628,163.000 83.628 C 162.780 83.628,162.150 83.886,161.600 84.200 M238.000 84.200 C 238.550 84.514,239.180 84.772,239.400 84.772 C 239.620 84.772,239.350 84.514,238.800 84.200 C 238.250 83.886,237.620 83.628,237.400 83.628 C 237.180 83.628,237.450 83.886,238.000 84.200 M156.672 86.964 C 153.658 88.808,151.669 90.197,153.000 89.527 C 154.286 88.880,160.400 85.118,160.400 84.973 C 160.400 84.688,160.332 84.724,156.672 86.964 M240.000 84.950 C 240.000 85.058,241.575 86.087,243.500 87.236 C 247.691 89.738,247.600 89.688,247.600 89.485 C 247.600 89.396,246.025 88.370,244.100 87.204 C 239.808 84.605,240.000 84.711,240.000 84.950 M199.107 85.490 C 199.826 85.579,200.906 85.577,201.507 85.486 C 202.108 85.395,201.520 85.322,200.200 85.324 C 198.880 85.326,198.388 85.401,199.107 85.490 M190.600 86.009 C 189.910 86.190,190.844 86.231,192.800 86.106 C 194.670 85.987,196.275 85.825,196.367 85.745 C 196.681 85.471,191.800 85.695,190.600 86.009 M204.033 85.745 C 204.125 85.825,205.730 85.987,207.600 86.106 C 209.556 86.231,210.490 86.190,209.800 86.009 C 208.600 85.695,203.719 85.471,204.033 85.745 M184.800 87.017 C 183.590 87.295,183.050 87.533,183.600 87.544 C 184.150 87.556,185.590 87.319,186.800 87.017 C 189.556 86.329,187.789 86.329,184.800 87.017 M213.600 87.017 C 214.810 87.319,216.250 87.559,216.800 87.550 C 217.350 87.540,216.720 87.290,215.400 86.992 C 212.262 86.285,210.750 86.306,213.600 87.017 M176.492 89.290 C 175.112 89.745,174.056 90.189,174.145 90.278 C 174.333 90.467,179.600 88.812,179.600 88.565 C 179.600 88.307,179.180 88.405,176.492 89.290 M220.800 88.523 C 220.800 88.799,226.046 90.487,226.255 90.278 C 226.345 90.188,225.379 89.792,224.109 89.398 C 222.839 89.003,221.575 88.598,221.300 88.497 C 221.025 88.397,220.800 88.408,220.800 88.523 M147.569 93.041 C 137.848 100.430,124.921 114.328,121.006 121.600 C 120.376 122.769,121.466 121.394,124.811 116.800 C 131.493 107.621,138.839 100.076,147.402 93.597 C 152.303 89.889,152.659 89.600,152.328 89.600 C 152.201 89.600,150.059 91.148,147.569 93.041 M248.200 89.876 C 248.420 90.093,250.579 91.767,252.998 93.597 C 261.561 100.076,268.907 107.621,275.589 116.800 C 278.934 121.394,280.024 122.769,279.394 121.600 C 277.043 117.232,266.781 105.111,260.884 99.735 C 256.706 95.927,245.483 87.203,248.200 89.876 M171.285 91.271 C 170.342 91.729,169.635 92.169,169.716 92.249 C 169.796 92.329,170.748 91.955,171.831 91.418 C 172.914 90.881,173.620 90.442,173.400 90.441 C 173.180 90.440,172.228 90.814,171.285 91.271 M228.569 91.418 C 229.652 91.955,230.604 92.329,230.685 92.249 C 230.854 92.079,227.359 90.390,226.904 90.421 C 226.737 90.433,227.486 90.881,228.569 91.418 M167.600 93.000 C 167.050 93.314,166.780 93.572,167.000 93.572 C 167.220 93.572,167.850 93.314,168.400 93.000 C 168.950 92.686,169.220 92.428,169.000 92.428 C 168.780 92.428,168.150 92.686,167.600 93.000 M232.000 93.000 C 232.550 93.314,233.180 93.572,233.400 93.572 C 233.620 93.572,233.350 93.314,232.800 93.000 C 232.250 92.686,231.620 92.428,231.400 92.428 C 231.180 92.428,231.450 92.686,232.000 93.000 M161.092 96.533 C 158.115 98.351,156.067 99.792,157.400 99.129 C 158.448 98.609,164.800 94.674,164.800 94.546 C 164.800 94.281,164.612 94.382,161.092 96.533 M235.600 94.522 C 235.600 94.616,237.175 95.646,239.100 96.811 C 243.227 99.310,243.200 99.295,243.200 99.078 C 243.200 98.984,241.625 97.954,239.700 96.789 C 235.573 94.290,235.600 94.305,235.600 94.522 M154.000 101.237 C 152.570 102.349,151.130 103.544,150.800 103.893 C 150.470 104.242,151.685 103.396,153.500 102.014 C 156.372 99.826,157.115 99.175,156.700 99.208 C 156.645 99.212,155.430 100.125,154.000 101.237 M243.600 99.301 C 243.600 99.410,245.040 100.614,246.800 101.976 C 248.560 103.337,250.000 104.366,250.000 104.262 C 250.000 104.158,248.785 103.129,247.300 101.976 C 245.815 100.823,244.375 99.705,244.100 99.491 C 243.825 99.277,243.600 99.192,243.600 99.301 M145.526 108.509 C 143.175 110.759,140.586 113.410,139.773 114.400 C 138.960 115.390,139.624 114.811,141.247 113.113 C 142.871 111.416,145.550 108.768,147.200 107.230 C 148.850 105.692,150.110 104.430,150.000 104.426 C 149.890 104.421,147.876 106.259,145.526 108.509 M253.200 107.174 C 254.850 108.743,257.526 111.416,259.146 113.113 C 262.023 116.128,262.039 116.138,259.848 113.558 C 258.614 112.105,255.938 109.432,253.902 107.618 C 250.658 104.729,250.571 104.674,253.200 107.174 M182.905 109.887 C 183.514 109.979,184.414 109.977,184.905 109.882 C 185.397 109.787,184.900 109.711,183.800 109.714 C 182.700 109.717,182.297 109.795,182.905 109.887 M177.000 110.591 C 174.343 111.274,175.527 111.289,178.800 110.615 C 180.230 110.320,180.860 110.078,180.200 110.078 C 179.540 110.077,178.100 110.308,177.000 110.591 M189.800 110.287 C 190.240 110.394,191.230 110.926,192.000 111.470 L 193.400 112.458 192.015 111.229 C 191.253 110.553,190.263 110.021,189.815 110.046 C 189.013 110.092,189.012 110.096,189.800 110.287 M170.100 112.812 C 169.165 113.227,168.400 113.658,168.400 113.769 C 168.400 113.881,169.165 113.646,170.100 113.248 C 171.035 112.850,172.070 112.420,172.400 112.294 C 172.933 112.089,172.933 112.063,172.400 112.060 C 172.070 112.058,171.035 112.396,170.100 112.812 M193.400 115.200 C 193.400 116.478,193.532 117.316,193.694 117.062 C 193.856 116.808,193.988 115.970,193.988 115.200 C 193.988 114.430,193.856 113.592,193.694 113.338 C 193.532 113.084,193.400 113.922,193.400 115.200 M166.000 115.069 C 159.604 118.843,150.325 128.768,146.807 135.600 C 145.974 137.218,146.603 136.404,148.823 132.996 C 153.605 125.654,160.379 118.767,166.100 115.432 C 167.145 114.822,168.000 114.251,168.000 114.162 C 168.000 113.904,167.896 113.951,166.000 115.069 M136.940 117.700 C 136.271 118.415,135.225 119.720,134.615 120.600 C 133.512 122.194,133.788 121.909,136.838 118.300 C 138.680 116.122,138.738 115.780,136.940 117.700 M263.513 118.200 C 266.582 121.909,266.871 122.206,265.588 120.332 C 264.885 119.304,263.758 117.954,263.084 117.332 C 262.182 116.499,262.295 116.728,263.513 118.200 M192.365 118.642 C 191.411 119.791,189.876 120.171,185.200 120.412 L 180.600 120.650 184.913 120.725 C 189.520 120.805,191.188 120.397,192.562 118.855 C 192.981 118.385,193.228 118.000,193.111 118.000 C 192.994 118.000,192.658 118.289,192.365 118.642 M178.000 121.200 C 177.236 121.694,178.058 121.694,179.600 121.200 L 180.600 120.880 179.600 120.846 C 179.050 120.827,178.330 120.987,178.000 121.200 M175.200 122.233 C 173.848 122.984,174.811 122.955,176.254 122.202 C 176.884 121.874,177.130 121.621,176.800 121.642 C 176.470 121.662,175.750 121.928,175.200 122.233 M118.389 125.900 C 115.890 130.027,115.905 130.000,116.122 130.000 C 116.216 130.000,117.246 128.425,118.411 126.500 C 120.910 122.373,120.895 122.400,120.678 122.400 C 120.584 122.400,119.554 123.975,118.389 125.900 M132.400 123.600 C 131.930 124.260,131.636 124.800,131.746 124.800 C 131.856 124.800,132.330 124.260,132.800 123.600 C 133.270 122.940,133.564 122.400,133.454 122.400 C 133.344 122.400,132.870 122.940,132.400 123.600 M267.600 123.600 C 268.070 124.260,268.544 124.800,268.654 124.800 C 268.764 124.800,268.470 124.260,268.000 123.600 C 267.530 122.940,267.056 122.400,266.946 122.400 C 266.836 122.400,267.130 122.940,267.600 123.600 M279.726 122.700 C 281.612 125.963,285.642 132.396,285.437 131.814 C 285.098 130.855,279.970 122.400,279.727 122.400 C 279.631 122.400,279.631 122.535,279.726 122.700 M169.989 125.068 C 167.984 126.422,164.018 130.068,162.334 132.104 C 161.288 133.369,162.028 132.759,164.200 130.565 C 166.180 128.566,168.565 126.428,169.500 125.812 C 170.989 124.833,171.476 124.400,171.089 124.400 C 171.028 124.400,170.533 124.701,169.989 125.068 M130.400 126.400 C 129.930 127.060,129.636 127.600,129.746 127.600 C 129.856 127.600,130.330 127.060,130.800 126.400 C 131.270 125.740,131.564 125.200,131.454 125.200 C 131.344 125.200,130.870 125.740,130.400 126.400 M269.600 126.400 C 270.070 127.060,270.544 127.600,270.654 127.600 C 270.764 127.600,270.470 127.060,270.000 126.400 C 269.530 125.740,269.056 125.200,268.946 125.200 C 268.836 125.200,269.130 125.740,269.600 126.400 M127.588 130.900 C 125.427 134.579,125.521 134.400,125.731 134.400 C 125.829 134.400,126.675 133.095,127.612 131.500 C 129.773 127.821,129.679 128.000,129.469 128.000 C 129.371 128.000,128.525 129.305,127.588 130.900 M270.918 128.300 C 272.124 130.483,274.532 134.400,274.669 134.400 C 274.879 134.400,274.973 134.579,272.812 130.900 C 271.875 129.305,271.029 128.000,270.931 128.000 C 270.833 128.000,270.827 128.135,270.918 128.300 M112.862 136.062 C 112.377 136.970,112.042 137.776,112.118 137.852 C 112.195 137.928,112.654 137.247,113.138 136.338 C 113.623 135.430,113.958 134.624,113.882 134.548 C 113.805 134.472,113.346 135.153,112.862 136.062 M159.200 136.200 C 158.519 137.190,158.052 138.000,158.162 138.000 C 158.272 138.000,158.919 137.190,159.600 136.200 C 160.281 135.210,160.748 134.400,160.638 134.400 C 160.528 134.400,159.881 135.210,159.200 136.200 M286.400 134.562 C 286.400 134.896,288.148 137.985,288.269 137.865 C 288.435 137.699,286.837 134.400,286.591 134.400 C 286.486 134.400,286.400 134.473,286.400 134.562 M123.779 137.641 C 122.992 139.204,122.414 140.547,122.494 140.627 C 122.573 140.707,123.303 139.428,124.116 137.786 C 124.929 136.144,125.507 134.800,125.402 134.800 C 125.296 134.800,124.566 136.078,123.779 137.641 M276.685 138.584 C 277.719 140.666,278.629 142.304,278.707 142.226 C 278.885 142.049,275.265 134.800,274.999 134.800 C 274.892 134.800,275.651 136.503,276.685 138.584 M144.836 139.193 C 144.130 140.517,143.640 141.600,143.746 141.600 C 144.012 141.600,146.431 137.098,146.258 136.925 C 146.182 136.848,145.542 137.869,144.836 139.193 M156.473 140.100 C 155.169 142.002,153.078 146.000,153.387 146.000 C 153.497 146.000,154.064 145.055,154.647 143.900 C 155.230 142.745,156.232 141.035,156.873 140.100 C 157.514 139.165,157.948 138.400,157.838 138.400 C 157.728 138.400,157.114 139.165,156.473 140.100 M110.465 141.017 C 109.795 142.488,109.923 142.802,110.647 141.465 C 110.986 140.840,111.188 140.254,111.096 140.163 C 111.005 140.071,110.721 140.456,110.465 141.017 M289.228 140.200 C 289.228 140.420,289.486 141.050,289.800 141.600 C 290.114 142.150,290.372 142.420,290.372 142.200 C 290.372 141.980,290.114 141.350,289.800 140.800 C 289.486 140.250,289.228 139.980,289.228 140.200 M141.551 145.443 C 140.892 146.897,140.420 148.154,140.503 148.236 C 140.585 148.318,141.211 147.129,141.893 145.593 C 142.576 144.057,143.048 142.800,142.942 142.800 C 142.836 142.800,142.211 143.989,141.551 145.443 M279.302 143.900 C 280.199 145.936,280.795 147.003,280.798 146.575 C 280.801 146.052,279.251 142.800,278.999 142.800 C 278.899 142.800,279.035 143.295,279.302 143.900 M120.065 145.417 C 119.395 146.888,119.523 147.202,120.247 145.865 C 120.586 145.240,120.788 144.654,120.696 144.563 C 120.605 144.471,120.321 144.856,120.065 145.417 M108.715 145.410 C 108.592 145.845,108.369 146.560,108.220 147.000 C 108.071 147.440,108.242 147.294,108.600 146.676 C 108.958 146.058,109.181 145.342,109.095 145.086 C 109.010 144.830,108.839 144.976,108.715 145.410 M291.230 145.200 C 291.228 145.776,292.357 148.066,292.386 147.546 C 292.394 147.406,292.137 146.686,291.816 145.946 C 291.494 145.206,291.231 144.870,291.230 145.200 M139.253 150.853 C 138.780 151.993,138.458 152.992,138.539 153.072 C 138.620 153.153,139.073 152.286,139.547 151.147 C 140.020 150.007,140.342 149.008,140.261 148.928 C 140.180 148.847,139.727 149.714,139.253 150.853 M118.065 150.217 C 117.809 150.778,117.607 151.454,117.616 151.719 C 117.624 151.983,117.897 151.588,118.222 150.839 C 118.905 149.265,118.761 148.690,118.065 150.217 M281.614 149.254 C 281.606 149.394,281.863 150.114,282.184 150.854 C 282.506 151.594,282.769 151.930,282.770 151.600 C 282.772 151.024,281.643 148.734,281.614 149.254 M106.491 151.300 C 105.810 153.184,105.904 153.694,106.626 152.030 C 106.953 151.277,107.166 150.499,107.101 150.302 C 107.035 150.105,106.760 150.554,106.491 151.300 M293.216 150.254 C 293.207 150.504,293.463 151.314,293.784 152.054 C 294.106 152.794,294.376 153.196,294.384 152.946 C 294.393 152.696,294.137 151.886,293.816 151.146 C 293.494 150.406,293.224 150.004,293.216 150.254 M150.053 152.453 C 149.580 153.593,149.258 154.592,149.339 154.672 C 149.420 154.753,149.873 153.886,150.347 152.747 C 150.820 151.607,151.142 150.608,151.061 150.528 C 150.980 150.447,150.527 151.314,150.053 152.453 M105.400 154.400 C 105.250 154.873,105.217 155.350,105.327 155.460 C 105.437 155.570,105.650 155.273,105.800 154.800 C 105.950 154.327,105.983 153.850,105.873 153.740 C 105.763 153.630,105.550 153.927,105.400 154.400 M136.846 157.446 C 136.171 159.594,135.688 161.421,135.773 161.506 C 135.857 161.590,136.479 159.902,137.154 157.754 C 137.829 155.606,138.312 153.779,138.227 153.694 C 138.143 153.610,137.521 155.298,136.846 157.446 M294.412 154.000 C 294.412 154.330,294.587 154.870,294.800 155.200 C 295.145 155.733,295.188 155.733,295.188 155.200 C 295.188 154.870,295.013 154.330,294.800 154.000 C 294.455 153.467,294.412 153.467,294.412 154.000 M115.600 157.200 C 115.129 158.782,114.817 160.151,114.908 160.241 C 114.999 160.332,115.452 159.105,115.916 157.516 C 116.380 155.926,116.691 154.558,116.608 154.474 C 116.525 154.391,116.071 155.618,115.600 157.200 M283.714 154.921 C 283.824 155.208,284.229 156.563,284.613 157.932 C 284.997 159.301,285.389 160.344,285.484 160.249 C 285.710 160.023,284.034 154.400,283.740 154.400 C 283.616 154.400,283.604 154.634,283.714 154.921 M148.000 157.400 C 147.502 158.626,147.182 159.716,147.288 159.822 C 147.395 159.928,147.861 158.984,148.325 157.725 C 149.420 154.754,149.174 154.508,148.000 157.400 M104.499 157.590 C 103.796 159.842,103.913 160.558,104.643 158.473 C 104.976 157.523,105.192 156.576,105.123 156.369 C 105.054 156.161,104.773 156.711,104.499 157.590 M295.224 156.400 C 295.217 156.730,295.471 157.720,295.788 158.600 C 296.105 159.480,296.370 159.930,296.376 159.600 C 296.383 159.270,296.129 158.280,295.812 157.400 C 295.495 156.520,295.230 156.070,295.224 156.400 M113.680 163.704 C 113.196 165.369,112.812 166.971,112.827 167.265 C 112.842 167.559,113.288 166.360,113.817 164.600 C 114.347 162.840,114.730 161.237,114.669 161.039 C 114.609 160.840,114.163 162.039,113.680 163.704 M285.649 161.000 C 285.633 161.220,286.053 162.840,286.582 164.600 C 287.112 166.360,287.557 167.530,287.571 167.200 C 287.599 166.521,285.696 160.381,285.649 161.000 M134.974 163.400 C 134.119 167.953,138.605 172.170,142.000 170.005 C 142.414 169.741,142.149 169.695,141.143 169.857 C 137.552 170.434,135.396 168.420,135.408 164.500 C 135.416 161.634,135.341 161.442,134.974 163.400 M102.832 163.018 C 102.814 163.248,102.426 165.199,101.969 167.354 C 101.512 169.509,101.214 171.347,101.305 171.438 C 101.397 171.530,101.687 170.569,101.950 169.302 C 102.213 168.036,102.621 166.249,102.858 165.330 C 103.094 164.412,103.192 163.422,103.075 163.130 C 102.959 162.839,102.849 162.788,102.832 163.018 M297.200 163.474 C 297.200 163.917,297.363 164.802,297.563 165.440 C 297.762 166.078,298.148 167.729,298.420 169.110 C 298.691 170.490,298.991 171.542,299.086 171.447 C 299.268 171.265,297.636 163.119,297.361 162.833 C 297.272 162.742,297.200 163.030,297.200 163.474 M143.826 168.300 C 142.962 169.405,142.893 169.590,143.563 169.004 C 144.365 168.304,145.423 166.800,145.114 166.800 C 145.051 166.800,144.472 167.475,143.826 168.300 M112.178 169.778 C 112.027 170.581,111.994 171.327,112.104 171.437 C 112.214 171.547,112.427 170.981,112.578 170.178 C 112.728 169.375,112.762 168.628,112.652 168.518 C 112.542 168.408,112.328 168.975,112.178 169.778 M287.668 169.000 C 287.674 169.440,287.824 170.250,288.000 170.800 L 288.320 171.800 288.332 170.800 C 288.338 170.250,288.189 169.440,288.000 169.000 L 287.656 168.200 287.668 169.000 M111.225 174.625 C 110.939 176.063,110.784 177.318,110.880 177.414 C 110.977 177.510,111.289 176.413,111.575 174.975 C 111.861 173.537,112.016 172.282,111.920 172.186 C 111.823 172.090,111.511 173.187,111.225 174.625 M288.451 172.600 C 288.442 173.040,288.681 174.390,288.983 175.600 C 289.285 176.810,289.540 177.440,289.549 177.000 C 289.558 176.560,289.319 175.210,289.017 174.000 C 288.715 172.790,288.460 172.160,288.451 172.600 M100.622 173.822 C 100.472 174.625,100.428 175.362,100.526 175.460 C 100.624 175.557,100.827 174.981,100.978 174.178 C 101.128 173.375,101.172 172.638,101.074 172.540 C 100.976 172.443,100.773 173.019,100.622 173.822 M299.280 173.000 C 299.280 173.440,299.424 174.250,299.600 174.800 C 299.854 175.592,299.920 175.633,299.920 175.000 C 299.920 174.560,299.776 173.750,299.600 173.200 C 299.346 172.408,299.280 172.367,299.280 173.000 M99.917 178.400 C 99.241 184.655,99.209 185.811,99.814 182.200 C 100.145 180.220,100.367 177.970,100.307 177.200 C 100.230 176.209,100.115 176.560,99.917 178.400 M300.076 177.400 C 300.053 178.280,300.293 180.530,300.610 182.400 L 301.186 185.800 300.931 183.000 C 300.446 177.693,300.123 175.578,300.076 177.400 M110.187 180.987 C 110.031 182.444,109.993 183.726,110.103 183.836 C 110.213 183.946,110.431 182.844,110.587 181.387 C 110.743 179.929,110.780 178.647,110.670 178.537 C 110.560 178.427,110.343 179.529,110.187 180.987 M289.676 179.400 C 289.667 180.060,289.803 181.410,289.980 182.400 C 290.278 184.078,290.302 184.105,290.327 182.800 C 290.342 182.030,290.205 180.680,290.023 179.800 C 289.737 178.420,289.690 178.365,289.676 179.400 M109.338 188.272 C 108.876 193.097,109.020 211.646,109.543 214.600 L 109.968 217.000 109.789 214.600 C 109.240 207.267,109.142 197.168,109.564 191.449 C 110.064 184.669,109.902 182.390,109.338 188.272 M290.743 189.200 C 290.885 191.730,291.000 196.950,291.000 200.800 C 291.000 204.650,290.885 209.870,290.743 212.400 C 290.539 216.054,290.568 216.548,290.883 214.800 C 291.401 211.919,291.405 189.637,290.888 186.800 C 290.566 185.032,290.537 185.503,290.743 189.200 M98.459 189.177 C 98.206 190.704,98.025 193.539,98.056 195.477 C 98.126 199.805,98.573 197.545,99.042 190.500 C 99.358 185.750,99.115 185.200,98.459 189.177 M301.431 190.400 C 301.754 197.199,302.277 200.009,302.325 195.200 C 302.346 193.110,302.108 190.230,301.797 188.800 L 301.232 186.200 301.431 190.400 M98.097 206.800 C 98.086 209.178,98.314 211.868,98.624 213.000 C 99.165 214.980,99.169 214.961,98.961 211.200 C 98.573 204.175,98.121 201.873,98.097 206.800 M301.901 205.400 C 301.737 206.720,301.514 209.420,301.406 211.400 L 301.210 215.000 301.819 212.872 C 302.226 211.451,302.390 209.457,302.314 206.872 C 302.202 203.070,302.195 203.043,301.901 205.400 M99.277 217.000 C 99.273 217.880,99.503 220.130,99.789 222.000 C 100.074 223.870,100.318 224.860,100.332 224.200 C 100.345 223.540,100.115 221.290,99.820 219.200 C 99.526 217.110,99.282 216.120,99.277 217.000 M300.461 220.136 C 300.174 222.741,300.016 224.949,300.109 225.043 C 300.366 225.299,301.319 217.111,301.139 216.194 C 301.053 215.757,300.748 217.531,300.461 220.136 M110.073 218.600 C 110.058 219.260,110.195 220.520,110.377 221.400 C 110.813 223.506,110.850 221.614,110.420 219.200 C 110.180 217.850,110.093 217.700,110.073 218.600 M289.829 220.029 C 289.676 221.379,289.633 222.566,289.733 222.667 C 289.834 222.767,290.044 221.747,290.200 220.400 C 290.356 219.053,290.399 217.866,290.295 217.762 C 290.191 217.658,289.981 218.678,289.829 220.029 M110.851 224.600 C 110.842 225.040,111.081 226.390,111.383 227.600 C 111.685 228.810,111.940 229.440,111.949 229.000 C 111.958 228.560,111.719 227.210,111.417 226.000 C 111.115 224.790,110.860 224.160,110.851 224.600 M288.825 226.625 C 288.539 228.063,288.384 229.318,288.480 229.414 C 288.577 229.510,288.889 228.413,289.175 226.975 C 289.461 225.537,289.616 224.282,289.520 224.186 C 289.423 224.090,289.111 225.187,288.825 226.625 M100.487 226.200 C 100.491 226.640,100.632 227.540,100.800 228.200 C 101.074 229.278,101.106 229.298,101.113 228.400 C 101.117 227.850,100.976 226.950,100.800 226.400 C 100.549 225.616,100.481 225.573,100.487 226.200 M299.400 227.200 C 299.246 228.110,299.204 228.938,299.307 229.040 C 299.410 229.143,299.613 228.477,299.760 227.560 C 299.907 226.643,299.948 225.815,299.853 225.720 C 299.758 225.624,299.554 226.290,299.400 227.200 M101.261 230.400 C 101.256 230.730,101.495 232.080,101.792 233.400 C 102.090 234.720,102.345 235.350,102.359 234.800 C 102.373 234.250,102.134 232.900,101.828 231.800 C 101.522 230.700,101.267 230.070,101.261 230.400 M112.080 230.600 C 112.080 231.040,112.224 231.850,112.400 232.400 C 112.654 233.192,112.720 233.233,112.720 232.600 C 112.720 232.160,112.576 231.350,112.400 230.800 C 112.146 230.008,112.080 229.967,112.080 230.600 M287.822 231.422 C 287.672 232.225,287.628 232.962,287.726 233.060 C 287.824 233.157,288.027 232.581,288.178 231.778 C 288.328 230.975,288.372 230.238,288.274 230.140 C 288.176 230.043,287.973 230.619,287.822 231.422 M298.643 231.400 C 298.485 232.280,298.078 234.137,297.738 235.527 C 297.398 236.916,297.200 238.133,297.297 238.231 C 297.567 238.501,299.301 230.901,299.103 230.314 C 299.008 230.031,298.801 230.520,298.643 231.400 M112.806 234.633 C 112.809 235.055,112.995 235.670,113.218 236.000 C 113.515 236.438,113.552 236.276,113.356 235.400 C 113.027 233.929,112.798 233.610,112.806 234.633 M287.246 234.467 C 287.221 234.834,287.096 235.464,286.970 235.867 C 286.752 236.562,286.763 236.563,287.197 235.887 C 287.448 235.496,287.573 234.866,287.473 234.487 C 287.311 233.868,287.288 233.866,287.246 234.467 M102.434 236.400 C 102.446 236.730,102.611 237.360,102.800 237.800 L 103.144 238.600 103.166 237.800 C 103.178 237.360,103.013 236.730,102.800 236.400 C 102.455 235.867,102.415 235.867,102.434 236.400 M113.657 237.400 C 113.661 238.234,114.721 241.300,114.763 240.600 C 114.777 240.380,114.533 239.390,114.221 238.400 C 113.909 237.410,113.655 236.960,113.657 237.400 M286.067 238.667 C 285.796 239.679,285.645 240.579,285.732 240.665 C 285.819 240.752,286.119 240.003,286.400 239.000 C 286.681 237.997,286.831 237.098,286.735 237.001 C 286.638 236.905,286.337 237.654,286.067 238.667 M103.256 239.200 C 103.256 239.530,103.411 240.160,103.600 240.600 C 103.817 241.104,103.944 241.178,103.944 240.800 C 103.944 240.470,103.789 239.840,103.600 239.400 C 103.383 238.896,103.256 238.822,103.256 239.200 M296.629 239.829 C 296.481 240.415,296.438 240.972,296.532 241.066 C 296.627 241.160,296.824 240.758,296.971 240.171 C 297.119 239.585,297.162 239.028,297.068 238.934 C 296.973 238.840,296.776 239.242,296.629 239.829 M114.832 241.389 C 114.781 242.011,116.543 247.375,116.665 246.968 C 116.725 246.766,116.345 245.340,115.819 243.800 C 115.294 242.260,114.849 241.175,114.832 241.389 M284.463 244.063 C 283.974 245.628,283.644 246.977,283.729 247.062 C 283.814 247.147,284.286 245.940,284.779 244.379 C 285.272 242.818,285.602 241.469,285.513 241.380 C 285.424 241.291,284.952 242.499,284.463 244.063 M104.057 242.200 C 104.061 243.034,105.121 246.100,105.163 245.400 C 105.177 245.180,104.933 244.190,104.621 243.200 C 104.309 242.210,104.055 241.760,104.057 242.200 M295.667 243.467 C 295.396 244.479,295.245 245.379,295.332 245.465 C 295.419 245.552,295.719 244.803,296.000 243.800 C 296.281 242.797,296.431 241.898,296.335 241.801 C 296.238 241.705,295.937 242.454,295.667 243.467 M294.022 248.622 C 292.899 252.098,293.180 252.380,294.356 248.956 C 294.852 247.509,295.174 246.241,295.072 246.138 C 294.969 246.036,294.497 247.153,294.022 248.622 M106.016 248.654 C 106.007 248.904,106.263 249.714,106.584 250.454 C 106.906 251.194,107.176 251.596,107.184 251.346 C 107.193 251.096,106.937 250.286,106.616 249.546 C 106.294 248.806,106.024 248.404,106.016 248.654 M117.614 249.654 C 117.606 249.794,117.863 250.514,118.184 251.254 C 118.506 251.994,118.769 252.330,118.770 252.000 C 118.772 251.424,117.643 249.134,117.614 249.654 M282.065 250.617 C 281.809 251.178,281.607 251.854,281.616 252.119 C 281.624 252.383,281.897 251.988,282.222 251.239 C 282.905 249.665,282.761 249.090,282.065 250.617 M108.022 254.251 C 107.997 254.757,108.649 256.380,110.458 260.319 C 111.135 261.794,111.854 263.430,112.056 263.955 C 112.257 264.481,112.511 264.822,112.620 264.714 C 112.728 264.605,112.084 262.944,111.188 261.022 C 110.292 259.100,109.218 256.689,108.801 255.664 C 108.384 254.639,108.034 254.003,108.022 254.251 M291.915 254.610 C 291.792 255.045,291.569 255.760,291.420 256.200 C 291.271 256.640,291.442 256.494,291.800 255.876 C 292.158 255.258,292.381 254.542,292.295 254.286 C 292.210 254.030,292.039 254.176,291.915 254.610 M119.628 255.000 C 119.628 255.220,119.886 255.850,120.200 256.400 C 120.514 256.950,120.772 257.220,120.772 257.000 C 120.772 256.780,120.514 256.150,120.200 255.600 C 119.886 255.050,119.628 254.780,119.628 255.000 M280.065 255.817 C 279.395 257.288,279.523 257.602,280.247 256.265 C 280.586 255.640,280.788 255.054,280.696 254.963 C 280.605 254.871,280.321 255.256,280.065 255.817 M289.658 259.994 C 288.966 261.541,288.412 262.940,288.426 263.104 C 288.440 263.267,289.072 262.067,289.831 260.438 C 290.589 258.809,291.143 257.410,291.062 257.329 C 290.981 257.248,290.349 258.448,289.658 259.994 M121.600 259.236 C 121.600 259.611,123.211 262.800,123.401 262.800 C 123.501 262.800,123.370 262.305,123.110 261.700 C 122.601 260.518,121.600 258.884,121.600 259.236 M277.799 260.686 C 277.411 261.519,277.017 262.335,276.923 262.500 C 276.830 262.665,276.849 262.800,276.967 262.800 C 277.247 262.800,278.839 259.505,278.650 259.316 C 278.570 259.237,278.187 259.853,277.799 260.686 M123.600 263.385 C 123.600 263.818,126.009 268.000,126.259 268.000 C 126.369 268.000,125.876 266.965,125.164 265.700 C 123.689 263.080,123.600 262.948,123.600 263.385 M275.281 265.630 C 274.559 266.934,274.052 268.000,274.155 268.000 C 274.426 268.000,276.913 263.580,276.740 263.407 C 276.660 263.326,276.003 264.327,275.281 265.630 M287.292 265.292 C 286.799 266.193,286.455 266.988,286.527 267.060 C 286.599 267.132,287.068 266.461,287.569 265.569 C 288.071 264.677,288.415 263.882,288.335 263.801 C 288.255 263.721,287.785 264.392,287.292 265.292 M112.800 265.372 C 112.800 265.808,116.425 272.400,116.665 272.400 C 116.832 272.400,113.374 265.744,112.941 265.233 C 112.864 265.142,112.800 265.204,112.800 265.372 M284.553 270.500 C 283.751 272.095,281.680 275.615,279.949 278.323 C 278.219 281.030,276.964 283.146,277.161 283.024 C 278.210 282.376,286.879 267.600,286.210 267.600 C 286.100 267.600,285.354 268.905,284.553 270.500 M128.613 272.300 C 129.212 273.345,129.963 274.470,130.282 274.800 C 130.601 275.130,130.197 274.275,129.384 272.900 C 128.572 271.525,127.820 270.400,127.715 270.400 C 127.610 270.400,128.014 271.255,128.613 272.300 M271.016 272.900 C 270.203 274.275,269.799 275.130,270.118 274.800 C 270.809 274.085,272.959 270.400,272.685 270.400 C 272.580 270.400,271.828 271.525,271.016 272.900 M117.590 274.346 C 118.380 275.879,122.387 282.000,122.600 282.000 C 122.708 282.000,121.686 280.245,120.329 278.100 C 117.858 274.193,116.676 272.573,117.590 274.346 M132.486 278.033 C 133.429 279.371,134.702 281.036,135.315 281.733 C 135.928 282.430,135.236 281.335,133.777 279.300 C 132.318 277.265,131.045 275.600,130.948 275.600 C 130.852 275.600,131.544 276.695,132.486 278.033 M266.623 279.300 C 265.164 281.335,264.472 282.430,265.085 281.733 C 266.408 280.229,269.704 275.600,269.452 275.600 C 269.355 275.600,268.082 277.265,266.623 279.300 M139.010 286.200 C 141.407 289.040,148.499 296.003,150.613 297.591 C 151.046 297.916,149.690 296.575,147.600 294.611 C 145.510 292.647,142.810 289.963,141.600 288.646 C 137.190 283.845,136.368 283.069,139.010 286.200 M260.967 286.300 C 259.488 288.005,256.371 291.175,254.039 293.345 C 249.381 297.681,248.607 298.452,249.787 297.581 C 252.796 295.359,264.692 283.200,263.855 283.200 C 263.745 283.200,262.445 284.595,260.967 286.300 M124.599 285.000 C 130.584 293.293,140.072 302.968,147.600 308.456 C 151.919 311.605,153.200 312.478,153.200 312.276 C 153.200 312.177,151.058 310.551,148.439 308.661 C 142.350 304.267,133.383 295.607,128.286 289.200 C 124.148 283.997,122.615 282.251,124.599 285.000 M272.885 288.300 C 266.107 297.001,256.872 305.643,248.564 311.058 C 244.551 313.674,244.058 314.323,247.900 311.932 C 256.066 306.851,268.629 295.023,274.325 287.054 C 276.408 284.139,275.544 284.886,272.885 288.300 M152.726 299.128 C 154.308 300.528,157.600 302.923,157.600 302.673 C 157.600 302.576,156.205 301.475,154.500 300.225 C 152.795 298.976,151.997 298.482,152.726 299.128 M246.000 300.050 C 242.790 302.523,241.956 303.378,244.474 301.615 C 246.504 300.192,249.123 298.028,248.800 298.040 C 248.690 298.043,247.430 298.948,246.000 300.050 M158.000 302.931 C 158.000 303.178,165.300 307.525,166.200 307.814 C 166.640 307.955,166.100 307.550,165.000 306.915 C 163.900 306.279,162.280 305.301,161.400 304.742 C 159.386 303.463,158.000 302.725,158.000 302.931 M239.800 304.270 C 238.480 305.078,236.500 306.263,235.400 306.905 C 234.300 307.546,233.760 307.955,234.200 307.814 C 235.070 307.535,242.400 303.183,242.400 302.945 C 242.400 302.694,242.257 302.767,239.800 304.270 M169.600 309.400 C 170.150 309.714,170.780 309.972,171.000 309.972 C 171.220 309.972,170.950 309.714,170.400 309.400 C 169.850 309.086,169.220 308.828,169.000 308.828 C 168.780 308.828,169.050 309.086,169.600 309.400 M230.000 309.400 C 229.450 309.714,229.180 309.972,229.400 309.972 C 229.620 309.972,230.250 309.714,230.800 309.400 C 231.350 309.086,231.620 308.828,231.400 308.828 C 231.180 308.828,230.550 309.086,230.000 309.400 M173.600 311.200 C 173.930 311.413,174.470 311.588,174.800 311.588 C 175.333 311.588,175.333 311.545,174.800 311.200 C 174.470 310.987,173.930 310.812,173.600 310.812 C 173.067 310.812,173.067 310.855,173.600 311.200 M225.600 311.200 C 225.067 311.545,225.067 311.588,225.600 311.588 C 225.930 311.588,226.470 311.413,226.800 311.200 C 227.333 310.855,227.333 310.812,226.800 310.812 C 226.470 310.812,225.930 310.987,225.600 311.200 M176.746 312.216 C 177.486 312.537,178.386 312.792,178.746 312.782 C 179.106 312.773,178.680 312.505,177.800 312.188 C 175.727 311.442,175.006 311.460,176.746 312.216 M222.400 312.225 C 221.630 312.516,221.294 312.765,221.654 312.777 C 222.014 312.790,222.914 312.537,223.654 312.216 C 225.320 311.492,224.316 311.500,222.400 312.225 M153.600 312.540 C 153.600 312.633,154.905 313.475,156.500 314.412 C 160.167 316.566,160.000 316.477,160.000 316.280 C 160.000 316.109,156.105 313.672,154.500 312.839 C 154.005 312.582,153.600 312.448,153.600 312.540 M183.800 314.228 C 184.900 314.534,186.250 314.773,186.800 314.759 C 187.350 314.745,186.720 314.490,185.400 314.192 C 182.280 313.489,181.229 313.513,183.800 314.228 M214.800 314.217 C 213.590 314.495,213.050 314.737,213.600 314.754 C 214.150 314.771,215.500 314.534,216.600 314.228 C 219.081 313.538,217.786 313.530,214.800 314.217 M239.933 316.151 C 235.549 318.508,235.528 318.829,239.900 316.642 C 241.935 315.625,243.600 314.704,243.600 314.596 C 243.600 314.243,243.041 314.480,239.933 316.151 M188.800 315.187 C 189.791 315.517,192.687 315.735,192.367 315.454 C 192.275 315.374,191.210 315.206,190.000 315.081 C 188.580 314.934,188.154 314.971,188.800 315.187 M209.400 315.200 L 207.800 315.486 209.200 315.503 C 209.970 315.513,211.050 315.376,211.600 315.200 C 212.885 314.788,211.699 314.788,209.400 315.200 M197.400 315.968 C 198.940 316.106,201.460 316.108,203.000 315.972 C 205.097 315.788,204.395 315.725,200.200 315.722 C 196.001 315.718,195.300 315.780,197.400 315.968 M161.011 316.923 C 162.189 317.703,168.458 320.476,168.638 320.296 C 168.723 320.210,167.850 319.720,166.697 319.207 C 165.544 318.694,163.711 317.853,162.625 317.337 C 160.419 316.290,159.827 316.138,161.011 316.923 M233.400 319.391 C 232.300 319.909,231.580 320.337,231.800 320.342 C 232.020 320.347,233.100 319.927,234.200 319.409 C 235.300 318.891,236.020 318.463,235.800 318.458 C 235.580 318.453,234.500 318.873,233.400 319.391 M171.233 321.361 C 171.545 321.662,176.532 323.201,176.689 323.044 C 176.775 322.959,175.720 322.509,174.345 322.044 C 171.982 321.246,170.859 321.000,171.233 321.361 M225.819 322.129 C 224.509 322.578,223.629 323.010,223.864 323.088 C 224.098 323.166,225.440 322.786,226.845 322.243 C 229.909 321.059,229.177 320.978,225.819 322.129 M178.800 323.821 C 179.790 324.133,180.960 324.378,181.400 324.367 C 181.840 324.355,181.300 324.096,180.200 323.791 C 177.585 323.065,176.476 323.088,178.800 323.821 M220.200 323.811 C 219.320 324.101,218.870 324.350,219.200 324.363 C 219.530 324.377,220.610 324.133,221.600 323.821 C 222.590 323.509,223.040 323.260,222.600 323.269 C 222.160 323.277,221.080 323.521,220.200 323.811 M183.200 324.800 C 183.750 324.976,184.560 325.120,185.000 325.120 C 185.633 325.120,185.592 325.054,184.800 324.800 C 184.250 324.624,183.440 324.480,183.000 324.480 C 182.367 324.480,182.408 324.546,183.200 324.800 M217.646 326.700 C 217.696 329.141,217.872 328.902,218.089 326.100 C 218.162 325.165,218.081 324.400,217.911 324.400 C 217.740 324.400,217.621 325.435,217.646 326.700 M186.700 325.465 C 187.799 325.909,187.050 326.785,183.900 328.739 C 182.085 329.865,179.700 331.616,178.600 332.631 C 176.764 334.325,176.741 334.366,178.323 333.138 C 181.486 330.682,181.786 330.470,184.700 328.633 C 187.566 326.827,188.649 325.153,186.900 325.232 C 186.482 325.250,186.401 325.344,186.700 325.465 M205.024 328.613 C 204.372 329.105,204.352 329.200,204.900 329.200 C 205.259 329.200,205.664 329.020,205.800 328.800 C 206.423 327.792,207.098 328.543,207.509 330.700 L 207.948 333.000 207.750 330.823 C 207.473 327.778,206.824 327.251,205.024 328.613 M202.200 329.600 C 201.696 329.817,201.622 329.944,202.000 329.944 C 202.330 329.944,202.960 329.789,203.400 329.600 C 203.904 329.383,203.978 329.256,203.600 329.256 C 203.270 329.256,202.640 329.411,202.200 329.600 M218.277 331.400 C 218.400 332.720,218.568 333.875,218.650 333.967 C 218.918 334.264,218.715 331.434,218.380 330.200 C 218.165 329.411,218.130 329.822,218.277 331.400 M198.986 330.381 C 197.766 330.875,197.117 331.845,197.315 332.878 C 197.473 333.706,197.497 333.689,197.546 332.714 C 197.601 331.613,198.351 330.994,200.377 330.379 C 201.166 330.140,201.217 330.067,200.600 330.060 C 200.160 330.055,199.434 330.199,198.986 330.381 M208.109 334.800 C 208.109 335.790,208.187 336.195,208.282 335.700 C 208.378 335.205,208.378 334.395,208.282 333.900 C 208.187 333.405,208.109 333.810,208.109 334.800 M196.420 337.082 C 196.157 338.577,195.756 340.700,195.530 341.800 C 195.303 342.900,195.181 344.250,195.259 344.800 L 195.400 345.800 202.400 345.800 L 209.400 345.800 209.462 344.200 L 209.525 342.600 209.262 344.000 L 209.000 345.400 202.300 345.510 L 195.600 345.619 195.600 344.387 C 195.600 343.709,195.768 342.400,195.973 341.477 C 196.837 337.590,197.300 334.767,197.105 334.572 C 196.991 334.458,196.682 335.587,196.420 337.082 M175.751 335.700 C 174.570 337.048,173.880 338.000,174.084 338.000 C 174.184 338.000,174.845 337.280,175.552 336.400 C 176.925 334.692,177.064 334.201,175.751 335.700 M218.893 336.000 C 218.895 337.765,219.491 340.388,219.530 338.800 C 219.543 338.250,219.405 337.080,219.223 336.200 L 218.892 334.600 218.893 336.000 M208.685 339.200 C 208.807 340.630,208.972 341.875,209.053 341.967 C 209.320 342.270,209.111 339.022,208.785 337.800 C 208.582 337.044,208.546 337.562,208.685 339.200 M182.436 339.672 C 181.316 341.056,180.400 342.353,180.400 342.554 C 180.400 342.755,180.915 342.218,181.544 341.360 C 183.828 338.246,184.758 337.467,185.480 338.063 C 186.032 338.519,186.100 338.509,185.932 338.000 C 185.501 336.697,184.428 337.210,182.436 339.672 M172.526 340.700 C 171.724 342.601,170.824 346.295,170.845 347.600 C 170.854 348.150,171.178 347.160,171.566 345.400 C 171.953 343.640,172.560 341.525,172.915 340.700 C 173.269 339.875,173.469 339.200,173.359 339.200 C 173.249 339.200,172.874 339.875,172.526 340.700 M185.040 340.840 C 184.893 341.757,184.852 342.585,184.947 342.680 C 185.042 342.776,185.246 342.110,185.400 341.200 C 185.554 340.290,185.596 339.462,185.493 339.360 C 185.390 339.257,185.187 339.923,185.040 340.840 M219.684 341.600 C 219.671 342.370,219.913 344.350,220.221 346.000 C 220.764 348.910,220.775 348.928,220.564 346.600 C 220.214 342.745,219.712 339.890,219.684 341.600 M184.079 346.021 C 183.806 347.613,183.655 348.988,183.743 349.076 C 183.978 349.311,184.909 344.127,184.729 343.586 C 184.644 343.333,184.352 344.429,184.079 346.021 M178.864 346.344 C 178.231 348.456,178.310 354.872,179.004 357.800 C 179.348 359.251,179.494 359.567,179.372 358.600 C 178.833 354.319,178.735 348.195,179.182 346.704 C 179.442 345.834,179.582 345.048,179.492 344.958 C 179.402 344.868,179.119 345.492,178.864 346.344 M170.501 350.200 C 170.505 351.080,170.587 351.393,170.683 350.895 C 170.779 350.398,170.775 349.678,170.675 349.295 C 170.575 348.913,170.496 349.320,170.501 350.200 M183.603 352.562 C 183.596 353.512,185.736 355.600,187.108 355.981 C 189.517 356.650,216.102 356.535,217.746 355.848 C 219.041 355.307,220.800 353.486,220.800 352.687 C 220.800 352.464,220.388 352.893,219.885 353.641 C 218.330 355.953,217.535 356.051,201.413 355.918 C 185.622 355.789,186.010 355.848,184.345 353.322 C 183.938 352.705,183.604 352.363,183.603 352.562 M170.879 355.600 C 170.864 356.370,171.110 358.080,171.426 359.400 C 171.991 361.756,171.996 361.763,171.751 359.800 C 171.215 355.517,170.910 354.045,170.879 355.600 M172.056 362.400 C 172.056 362.730,172.211 363.360,172.400 363.800 C 172.617 364.304,172.744 364.378,172.744 364.000 C 172.744 363.670,172.589 363.040,172.400 362.600 C 172.183 362.096,172.056 362.022,172.056 362.400 M180.421 363.085 C 180.394 363.707,182.032 368.102,182.220 367.914 C 182.298 367.836,181.930 366.608,181.402 365.186 C 180.874 363.764,180.432 362.818,180.421 363.085 M172.800 364.950 C 172.800 365.537,174.492 370.441,174.643 370.291 C 174.729 370.204,174.423 368.978,173.961 367.567 C 173.167 365.139,172.800 364.311,172.800 364.950 M182.428 368.600 C 182.428 368.820,182.686 369.450,183.000 370.000 C 183.314 370.550,183.572 370.820,183.572 370.600 C 183.572 370.380,183.314 369.750,183.000 369.200 C 182.686 368.650,182.428 368.380,182.428 368.600 M174.850 371.000 C 174.847 371.220,175.451 372.660,176.194 374.200 C 176.936 375.740,177.546 376.820,177.550 376.600 C 177.553 376.380,176.949 374.940,176.206 373.400 C 175.464 371.860,174.854 370.780,174.850 371.000 M183.600 371.353 C 183.600 371.782,184.790 374.000,185.021 374.000 C 185.131 374.000,184.923 373.415,184.559 372.700 C 183.817 371.240,183.600 370.936,183.600 371.353 M185.272 374.600 C 185.567 375.484,188.025 380.000,188.212 380.000 C 188.436 380.000,186.281 375.733,185.586 374.800 C 185.340 374.470,185.199 374.380,185.272 374.600 M177.645 377.401 C 178.067 378.495,180.539 382.795,180.670 382.664 C 180.753 382.581,180.170 381.363,179.376 379.956 C 178.024 377.564,177.290 376.479,177.645 377.401 M189.242 382.100 C 190.567 384.725,194.850 392.000,195.070 392.000 C 195.178 392.000,194.707 391.055,194.023 389.900 C 193.339 388.745,191.869 386.135,190.755 384.100 C 188.704 380.351,187.667 378.981,189.242 382.100 M181.646 384.796 C 182.139 385.673,182.608 386.326,182.687 386.246 C 182.859 386.074,181.206 383.200,180.935 383.200 C 180.833 383.200,181.152 383.918,181.646 384.796 M183.560 388.200 C 184.546 390.254,190.565 400.416,190.272 399.533 C 190.060 398.894,184.075 388.442,183.209 387.200 C 182.979 386.870,183.137 387.320,183.560 388.200 M195.318 392.700 C 196.524 394.883,198.932 398.800,199.069 398.800 C 199.279 398.800,199.373 398.979,197.212 395.300 C 196.275 393.705,195.429 392.400,195.331 392.400 C 195.233 392.400,195.227 392.535,195.318 392.700 " stroke="none" fill="#807c7c" fill-rule="evenodd"></path></g></svg>